<svg width="70" height="60" viewBox="0 0 70 60" fill="none" xmlns="http://www.w3.org/2000/svg">
<path d="M6.05797 55.32C5.58797 55.87 4.91797 56.2 4.14797 56.2C2.69797 56.2 1.58797 55.04 1.58797 53.57C1.58797 52.1 2.69797 50.93 4.14797 50.93C4.90797 50.93 5.56797 51.27 6.03797 51.78L6.73797 51.2C6.12797 50.48 5.21797 50.03 4.14797 50.03C2.19797 50.03 0.657969 51.62 0.657969 53.57C0.657969 55.53 2.19797 57.1 4.14797 57.1C5.22797 57.1 6.14797 56.64 6.75797 55.91L6.05797 55.32ZM7.75414 49.79V57H8.66414V49.79H7.75414ZM13.8858 57H14.7858V52.33H13.8858V53.03C13.5658 52.5 12.8958 52.23 12.2458 52.23C10.9658 52.23 9.87578 53.17 9.87578 54.66C9.87578 56.14 10.9658 57.1 12.2458 57.1C12.8958 57.1 13.5758 56.8 13.8858 56.28V57ZM13.8758 54.65C13.8758 55.64 13.1558 56.21 12.3258 56.21C11.4858 56.21 10.8058 55.57 10.8058 54.65C10.8058 53.73 11.4858 53.12 12.3258 53.12C13.0858 53.12 13.8758 53.65 13.8758 54.65ZM18.0088 55.09C18.3588 55.17 18.6388 55.33 18.6288 55.68C18.6188 56.03 18.3488 56.26 17.9188 56.29C17.6288 56.31 17.3888 56.26 17.1788 56.13C16.9488 56.02 16.8288 55.8 16.7988 55.6H15.9688C15.9988 56.56 16.8688 57.1 17.7088 57.1C18.6788 57.1 19.5188 56.58 19.5188 55.7C19.5188 55.17 19.2688 54.58 18.3088 54.34L17.6188 54.17C17.3788 54.1 17.1588 54 17.0688 53.81C17.0188 53.71 17.0188 53.59 17.0588 53.44C17.1288 53.19 17.4088 53.02 17.7588 53.02C18.1188 53.02 18.4388 53.2 18.4888 53.55H19.3588C19.2788 52.6 18.5288 52.23 17.7388 52.23C16.8988 52.23 16.1988 52.74 16.1188 53.42C16.0388 54.29 16.5188 54.71 17.3688 54.94L18.0088 55.09ZM22.4034 55.09C22.7534 55.17 23.0334 55.33 23.0234 55.68C23.0134 56.03 22.7434 56.26 22.3134 56.29C22.0234 56.31 21.7834 56.26 21.5734 56.13C21.3434 56.02 21.2234 55.8 21.1934 55.6H20.3634C20.3934 56.56 21.2634 57.1 22.1034 57.1C23.0734 57.1 23.9134 56.58 23.9134 55.7C23.9134 55.17 23.6634 54.58 22.7034 54.34L22.0134 54.17C21.7734 54.1 21.5534 54 21.4634 53.81C21.4134 53.71 21.4134 53.59 21.4534 53.44C21.5234 53.19 21.8034 53.02 22.1534 53.02C22.5134 53.02 22.8334 53.2 22.8834 53.55H23.7534C23.6734 52.6 22.9234 52.23 22.1334 52.23C21.2934 52.23 20.5934 52.74 20.5134 53.42C20.4334 54.29 20.9134 54.71 21.7634 54.94L22.4034 55.09ZM25.9979 52.33H25.0979V57H25.9979V52.33ZM24.9179 50.61C24.9179 50.96 25.1979 51.2 25.5479 51.2C25.8979 51.2 26.1779 50.96 26.1779 50.61C26.1779 50.26 25.8979 50.02 25.5479 50.02C25.1979 50.02 24.9179 50.26 24.9179 50.61ZM27.2098 54.65C27.2098 56.13 28.3498 57.1 29.6798 57.1C30.3998 57.1 31.0498 56.82 31.4898 56.34L30.7898 55.76C30.5098 56.05 30.1098 56.22 29.6798 56.22C28.8398 56.22 28.1098 55.58 28.1098 54.65C28.1098 53.71 28.8398 53.12 29.6798 53.12C30.1098 53.12 30.5098 53.28 30.7898 53.56L31.4798 52.98C31.0398 52.5 30.3998 52.23 29.6798 52.23C28.3498 52.23 27.2098 53.17 27.2098 54.65ZM38.0846 57C40.0446 57 41.1846 55.53 41.1846 53.57C41.1846 51.61 40.0446 50.11 38.0846 50.11H35.4146V57H38.0846ZM36.3446 56.13V50.98H38.0846C39.5146 50.98 40.2546 52.12 40.2546 53.57C40.2546 55.02 39.5146 56.13 38.0846 56.13H36.3446ZM43.0709 54.3C43.1809 53.51 43.7809 53.05 44.5509 53.05C45.3109 53.05 45.8609 53.51 45.9709 54.3H43.0709ZM46.8709 54.65C46.8709 53.17 45.8809 52.23 44.5509 52.23C43.2209 52.23 42.1609 53.17 42.1609 54.65C42.1609 56.13 43.2209 57.1 44.5509 57.1C45.4609 57.1 46.3009 56.69 46.7009 55.86C46.4509 55.75 46.1609 55.67 45.9209 55.56C45.6509 56.03 45.1409 56.28 44.5809 56.28C43.7809 56.28 43.1809 55.8 43.0709 55.01H46.8609C46.8709 54.9 46.8709 54.76 46.8709 54.65ZM49.7276 55.09C50.0776 55.17 50.3576 55.33 50.3476 55.68C50.3376 56.03 50.0676 56.26 49.6376 56.29C49.3476 56.31 49.1076 56.26 48.8976 56.13C48.6676 56.02 48.5476 55.8 48.5176 55.6H47.6876C47.7176 56.56 48.5876 57.1 49.4276 57.1C50.3976 57.1 51.2376 56.58 51.2376 55.7C51.2376 55.17 50.9876 54.58 50.0276 54.34L49.3376 54.17C49.0976 54.1 48.8776 54 48.7876 53.81C48.7376 53.71 48.7376 53.59 48.7776 53.44C48.8476 53.19 49.1276 53.02 49.4776 53.02C49.8376 53.02 50.1576 53.2 50.2076 53.55H51.0776C50.9976 52.6 50.2476 52.23 49.4576 52.23C48.6176 52.23 47.9176 52.74 47.8376 53.42C47.7576 54.29 48.2376 54.71 49.0876 54.94L49.7276 55.09ZM53.3221 52.33H52.4221V57H53.3221V52.33ZM52.2421 50.61C52.2421 50.96 52.5221 51.2 52.8721 51.2C53.2221 51.2 53.5021 50.96 53.5021 50.61C53.5021 50.26 53.2221 50.02 52.8721 50.02C52.5221 50.02 52.2421 50.26 52.2421 50.61ZM55.544 57.67C55.424 57.72 54.894 58.01 54.784 58.07C55.234 58.9 56.024 59.33 56.894 59.33C58.444 59.33 59.444 58.49 59.444 56.29V52.33H58.544V53.06C58.224 52.53 57.554 52.23 56.904 52.23C55.624 52.23 54.534 53.2 54.534 54.68C54.534 56.16 55.624 57.1 56.904 57.1C57.564 57.1 58.254 56.8 58.544 56.24C58.544 56.28 58.554 56.31 58.554 56.35C58.554 57.9 57.904 58.47 56.894 58.47C56.374 58.47 55.824 58.19 55.544 57.67ZM58.534 54.67C58.534 55.67 57.744 56.21 56.984 56.21C56.144 56.21 55.464 55.63 55.464 54.67C55.464 53.76 56.144 53.12 56.984 53.12C57.814 53.12 58.534 53.67 58.534 54.67ZM61.8673 54.48C61.8673 53.49 62.5273 53.12 63.1873 53.12C63.8273 53.12 64.2173 53.57 64.2173 54.36V57H65.1273V54.3C65.1273 52.98 64.4973 52.23 63.3273 52.23C62.8173 52.23 62.1373 52.47 61.8673 53.03V52.33H60.9573V57H61.8673V54.48Z" fill="black"/>
<g filter="url(#filter0_d_1396_11293)">
<rect x="4" y="3.58984" width="58" height="40" rx="2" fill="white"/>
<rect x="4.26111" y="3.85095" width="57.4778" height="39.4778" rx="1.73889" stroke="#3F55DB" stroke-width="0.522222"/>
</g>
<path d="M10 24.9395H31V26.9395H10V24.9395Z" fill="#3F55DB" fill-opacity="0.5"/>
<path d="M10.2611 15.2611H30.7389V18.7389H10.2611V15.2611Z" fill="#3F55DB" stroke="#3F55DB" stroke-width="0.522222"/>
<path d="M10 22H31V24H10V22Z" fill="#3F55DB" fill-opacity="0.5"/>
<path d="M10 36.7051H31V38.7051H10V36.7051Z" fill="#3F55DB" fill-opacity="0.5"/>
<path d="M10 33.7676H31V35.7676H10V33.7676Z" fill="#3F55DB" fill-opacity="0.5"/>
<path d="M10 30.8223H31V32.8223H10V30.8223Z" fill="#3F55DB" fill-opacity="0.5"/>
<path d="M10 27.8828H31V29.8828H10V27.8828Z" fill="#3F55DB" fill-opacity="0.5"/>
<path d="M35.8861 15.0267H55.3639V38.5045H35.8861V15.0267Z" fill="#3F55DB" stroke="#3F55DB" stroke-width="0.522222"/>
<path d="M6.61111 3.26111H59.3889C60.6868 3.26111 61.7389 4.31324 61.7389 5.61111V9.73889H4.26111V5.61111C4.26111 4.31324 5.31324 3.26111 6.61111 3.26111Z" fill="white" stroke="#3F55DB" stroke-width="0.522222"/>
<circle cx="14.1977" cy="6.19771" r="1.19771" fill="#3F55DB"/>
<circle cx="9.19771" cy="6.19771" r="1.19771" fill="#3F55DB"/>
<circle cx="19.1977" cy="6.19771" r="1.19771" fill="#3F55DB"/>
<defs>
<filter id="filter0_d_1396_11293" x="0.866667" y="0.45651" width="68.4444" height="50.4444" filterUnits="userSpaceOnUse" color-interpolation-filters="sRGB">
<feFlood flood-opacity="0" result="BackgroundImageFix"/>
<feColorMatrix in="SourceAlpha" type="matrix" values="0 0 0 0 0 0 0 0 0 0 0 0 0 0 0 0 0 0 127 0" result="hardAlpha"/>
<feOffset dx="2.08889" dy="2.08889"/>
<feGaussianBlur stdDeviation="2.61111"/>
<feComposite in2="hardAlpha" operator="out"/>
<feColorMatrix type="matrix" values="0 0 0 0 0.247059 0 0 0 0 0.333333 0 0 0 0 0.858824 0 0 0 0.25 0"/>
<feBlend mode="normal" in2="BackgroundImageFix" result="effect1_dropShadow_1396_11293"/>
<feBlend mode="normal" in="SourceGraphic" in2="effect1_dropShadow_1396_11293" result="shape"/>
</filter>
</defs>
</svg>
