<svg width="38" height="38" viewBox="0 0 38 38" fill="none" xmlns="http://www.w3.org/2000/svg">
<g filter="url(#filter0_d_1083_9888)">
<rect x="4" width="30" height="30" rx="15" fill="white"/>
</g>
<path d="M26.556 9.12267L24.8776 7.44403C24.2828 6.84914 23.3134 6.85343 22.7187 7.44832L14.3117 15.8566C14.2502 15.9186 14.2014 15.9919 14.1677 16.0725L12.0553 21.0555C11.9369 21.3349 12.0195 21.6166 12.1993 21.7985C12.3792 21.9806 12.6629 22.0632 12.9443 21.9446L17.9288 19.8341C18.0093 19.8003 18.0812 19.7516 18.1447 19.6901L26.5517 11.2819C27.1466 10.6871 27.1508 9.71756 26.556 9.12267ZM17.1818 18.4941L14.2736 19.7262L15.5055 16.8176L21.4064 10.9158L23.0827 12.5923L17.1818 18.4941ZM25.4723 10.2023L24.1601 11.5148L22.4838 9.83823L23.796 8.52571L23.8003 8.52158L25.4766 10.1981L25.4723 10.2023Z" fill="#8B8B8B"/>
<defs>
<filter id="filter0_d_1083_9888" x="0" y="0" width="38" height="38" filterUnits="userSpaceOnUse" color-interpolation-filters="sRGB">
<feFlood flood-opacity="0" result="BackgroundImageFix"/>
<feColorMatrix in="SourceAlpha" type="matrix" values="0 0 0 0 0 0 0 0 0 0 0 0 0 0 0 0 0 0 127 0" result="hardAlpha"/>
<feOffset dy="4"/>
<feGaussianBlur stdDeviation="2"/>
<feComposite in2="hardAlpha" operator="out"/>
<feColorMatrix type="matrix" values="0 0 0 0 0 0 0 0 0 0 0 0 0 0 0 0 0 0 0.2 0"/>
<feBlend mode="normal" in2="BackgroundImageFix" result="effect1_dropShadow_1083_9888"/>
<feBlend mode="normal" in="SourceGraphic" in2="effect1_dropShadow_1083_9888" result="shape"/>
</filter>
</defs>
</svg>
