<svg width="70" height="51" viewBox="0 0 70 51" fill="none" xmlns="http://www.w3.org/2000/svg">
<g filter="url(#filter0_d_1396_11310)">
<rect x="4" y="3.57368" width="58" height="39.4263" rx="2" fill="white"/>
<rect x="4.26111" y="3.8348" width="57.4778" height="38.9041" rx="1.73889" stroke="#3F55DB" stroke-width="0.522222"/>
</g>
<path d="M28.6927 34.4073C28.1721 34.2281 27.9104 33.6664 28.1081 33.1525L33.6938 18.6357C33.8915 18.1219 34.4738 17.8506 34.9944 18.0297C35.515 18.2089 35.7767 18.7706 35.579 19.2844L29.9933 33.8013C29.7956 34.3151 29.2133 34.5864 28.6927 34.4073Z" fill="#3F55DB" fill-opacity="0.5"/>
<path d="M4.26111 5.61111C4.26111 4.31324 5.31324 3.26111 6.61111 3.26111H59.3889C60.6868 3.26111 61.7389 4.31324 61.7389 5.61111V9.53823H4.26111V5.61111Z" fill="white" stroke="#3F55DB" stroke-width="0.522222"/>
<ellipse cx="14.2083" cy="6.42784" rx="1.20833" ry="1.14273" fill="#3F55DB"/>
<ellipse cx="9.20833" cy="6.42784" rx="1.20833" ry="1.14273" fill="#3F55DB"/>
<ellipse cx="19.2083" cy="6.42784" rx="1.20833" ry="1.14273" fill="#3F55DB"/>
<path d="M14.8751 25.8311C14.8751 26.0491 14.9775 26.2461 15.1494 26.3959L15.2221 26.4537L15.9327 27.0185L22.0704 31.8967C22.4802 32.2224 23.1545 32.2224 23.5676 31.8967C23.9775 31.5709 23.9775 31.035 23.5676 30.7067L17.4267 25.8284L23.5643 20.9476C23.9742 20.6219 23.9742 20.086 23.5643 19.7576C23.1545 19.4319 22.4802 19.4319 22.0704 19.7602L15.9327 24.6384L15.2122 25.2111L15.1527 25.2584C14.9775 25.4081 14.8718 25.6104 14.8751 25.8311Z" fill="#3F55DB"/>
<path d="M49.3124 25.823C49.3124 25.605 49.21 25.4079 49.0381 25.2582L48.9654 25.2004L48.2548 24.6356L42.1171 19.7574C41.7073 19.4317 41.033 19.4317 40.6199 19.7574C40.21 20.0831 40.21 20.619 40.6199 20.9474L46.7608 25.8256L40.6232 30.7065C40.2133 31.0322 40.2133 31.5681 40.6232 31.8965C41.033 32.2222 41.7073 32.2222 42.1171 31.8938L48.2548 27.0156L48.9753 26.4429L49.0348 26.3957C49.21 26.2459 49.3157 26.0437 49.3124 25.823Z" fill="#3F55DB"/>
<defs>
<filter id="filter0_d_1396_11310" x="0.866667" y="0.440351" width="68.4444" height="49.8708" filterUnits="userSpaceOnUse" color-interpolation-filters="sRGB">
<feFlood flood-opacity="0" result="BackgroundImageFix"/>
<feColorMatrix in="SourceAlpha" type="matrix" values="0 0 0 0 0 0 0 0 0 0 0 0 0 0 0 0 0 0 127 0" result="hardAlpha"/>
<feOffset dx="2.08889" dy="2.08889"/>
<feGaussianBlur stdDeviation="2.61111"/>
<feComposite in2="hardAlpha" operator="out"/>
<feColorMatrix type="matrix" values="0 0 0 0 0.247059 0 0 0 0 0.333333 0 0 0 0 0.858824 0 0 0 0.25 0"/>
<feBlend mode="normal" in2="BackgroundImageFix" result="effect1_dropShadow_1396_11310"/>
<feBlend mode="normal" in="SourceGraphic" in2="effect1_dropShadow_1396_11310" result="shape"/>
</filter>
</defs>
</svg>
