<svg width="38" height="38" viewBox="0 0 38 38" fill="none" xmlns="http://www.w3.org/2000/svg">
<g filter="url(#filter0_d_2284_9282)">
<rect x="4" width="30" height="30" rx="15" fill="white"/>
</g>
<path d="M13 20.9324C13 22.2962 13.6987 23 15.0336 23H20.8724C22.2073 23 22.906 22.2899 22.906 20.9324V19.7698H23.9664C25.3013 19.7698 26 19.0597 26 17.7023V12.7313C26 11.9018 25.8253 11.3739 25.3325 10.8649L22.226 7.67243C21.7519 7.18853 21.1905 7 20.4731 7H18.1276C16.7927 7 16.094 7.71013 16.094 9.07384V10.2302H15.0336C13.6987 10.2302 13 10.9466 13 12.304V20.9324ZM22.2759 14.3213L18.8949 10.8649C18.4208 10.381 18.0154 10.249 17.3354 10.2364V9.14925C17.3354 8.57738 17.6348 8.25687 18.2337 8.25687H20.8349V11.2419C20.8349 12.0212 21.2466 12.4297 22.0139 12.4297H24.7524V17.6206C24.7524 18.1987 24.453 18.5192 23.8541 18.5192H22.906V16.106C22.906 15.2577 22.7999 14.8617 22.2759 14.3213ZM21.8642 11.0848V8.76591L24.428 11.3928H22.1699C21.9515 11.3928 21.8642 11.3048 21.8642 11.0848ZM14.2414 20.8507V12.3857C14.2414 11.8075 14.5408 11.487 15.1459 11.487H17.0485V14.9057C17.0485 15.817 17.4914 16.2569 18.3896 16.2569H21.6646V20.8507C21.6646 21.4289 21.3652 21.7494 20.7601 21.7494H15.1396C14.5408 21.7494 14.2414 21.4289 14.2414 20.8507ZM18.5082 15.1571C18.2524 15.1571 18.1401 15.0503 18.1401 14.7863V11.7258L21.4962 15.1571H18.5082Z" fill="#8B8B8B"/>
<defs>
<filter id="filter0_d_2284_9282" x="0" y="0" width="38" height="38" filterUnits="userSpaceOnUse" color-interpolation-filters="sRGB">
<feFlood flood-opacity="0" result="BackgroundImageFix"/>
<feColorMatrix in="SourceAlpha" type="matrix" values="0 0 0 0 0 0 0 0 0 0 0 0 0 0 0 0 0 0 127 0" result="hardAlpha"/>
<feOffset dy="4"/>
<feGaussianBlur stdDeviation="2"/>
<feComposite in2="hardAlpha" operator="out"/>
<feColorMatrix type="matrix" values="0 0 0 0 0 0 0 0 0 0 0 0 0 0 0 0 0 0 0.2 0"/>
<feBlend mode="normal" in2="BackgroundImageFix" result="effect1_dropShadow_2284_9282"/>
<feBlend mode="normal" in="SourceGraphic" in2="effect1_dropShadow_2284_9282" result="shape"/>
</filter>
</defs>
</svg>
