<svg width="38" height="38" viewBox="0 0 38 38" fill="none" xmlns="http://www.w3.org/2000/svg">
<g filter="url(#filter0_d_2284_9283)">
<rect x="4" width="30" height="30" rx="15" fill="white"/>
</g>
<path d="M15.6488 23H22.3583C23.3289 23 23.8957 22.4779 23.9383 21.5051L24.3846 11.1699H25.3623C25.7237 11.1699 26 10.8838 26 10.5262C26 10.1685 25.7166 9.89674 25.3623 9.89674H22.2874V8.82387C22.2874 7.67948 21.5577 7 20.3391 7H17.6468C16.4281 7 15.6984 7.67948 15.6984 8.82387V9.89674H12.6377C12.2834 9.89674 12 10.1757 12 10.5262C12 10.8909 12.2834 11.1699 12.6377 11.1699H13.6225L14.0759 21.5051C14.1113 22.4779 14.6781 23 15.6488 23ZM17.1721 8.88824C17.1721 8.56638 17.3917 8.35896 17.746 8.35896H20.247C20.6012 8.35896 20.8209 8.56638 20.8209 8.88824V9.89674H17.1721V8.88824ZM16.7257 20.8042C16.4423 20.8042 16.2439 20.6182 16.2368 20.3321L16.0243 12.7363C16.0172 12.4502 16.2156 12.257 16.5132 12.257C16.7966 12.257 16.9949 12.443 17.002 12.7291L17.2146 20.325C17.2287 20.6111 17.0304 20.8042 16.7257 20.8042ZM19 20.8042C18.7024 20.8042 18.504 20.6182 18.504 20.3321V12.7291C18.504 12.4502 18.7024 12.257 19 12.257C19.2976 12.257 19.503 12.4502 19.503 12.7291V20.3321C19.503 20.6182 19.2976 20.8042 19 20.8042ZM21.2743 20.8114C20.9696 20.8114 20.7713 20.6111 20.7854 20.3321L20.998 12.7291C21.0051 12.443 21.2034 12.257 21.4868 12.257C21.7844 12.257 21.9828 12.4502 21.9757 12.7363L21.7632 20.3321C21.7561 20.6182 21.5577 20.8114 21.2743 20.8114Z" fill="#8B8B8B"/>
<defs>
<filter id="filter0_d_2284_9283" x="0" y="0" width="38" height="38" filterUnits="userSpaceOnUse" color-interpolation-filters="sRGB">
<feFlood flood-opacity="0" result="BackgroundImageFix"/>
<feColorMatrix in="SourceAlpha" type="matrix" values="0 0 0 0 0 0 0 0 0 0 0 0 0 0 0 0 0 0 127 0" result="hardAlpha"/>
<feOffset dy="4"/>
<feGaussianBlur stdDeviation="2"/>
<feComposite in2="hardAlpha" operator="out"/>
<feColorMatrix type="matrix" values="0 0 0 0 0 0 0 0 0 0 0 0 0 0 0 0 0 0 0.2 0"/>
<feBlend mode="normal" in2="BackgroundImageFix" result="effect1_dropShadow_2284_9283"/>
<feBlend mode="normal" in="SourceGraphic" in2="effect1_dropShadow_2284_9283" result="shape"/>
</filter>
</defs>
</svg>
