<svg width="45" height="41" viewBox="0 0 45 41" fill="none" xmlns="http://www.w3.org/2000/svg">
    <path d="M15.0983 32.4811C15.6761 32.4811 16.2234 32.5874 16.7404 32.8C17.2574 33.0126 17.7059 33.3087 18.086 33.6883C18.4661 34.068 18.7702 34.5159 18.9983 35.0322C19.2264 35.5485 19.3404 36.0952 19.3404 36.6722C19.3404 37.2493 19.2264 37.7959 18.9983 38.3122C18.7702 38.8285 18.4661 39.2765 18.086 39.6561C17.7059 40.0357 17.2574 40.3394 16.7404 40.5672C16.2234 40.795 15.6761 40.9089 15.0983 40.9089C14.4901 40.9089 13.9275 40.795 13.4106 40.5672C12.8936 40.3394 12.4451 40.0357 12.0649 39.6561C11.6848 39.2765 11.3807 38.8285 11.1527 38.3122C10.9246 37.7959 10.8106 37.2493 10.8106 36.6722C10.8106 36.0952 10.9246 35.5485 11.1527 35.0322C11.3807 34.5159 11.6848 34.068 12.0649 33.6883C12.4451 33.3087 12.8936 33.0126 13.4106 32.8C13.9275 32.5874 14.4901 32.4811 15.0983 32.4811ZM34.0738 32.5722C34.6516 32.5722 35.2065 32.6785 35.7387 32.8911C36.2709 33.1037 36.727 33.3998 37.1071 33.7794C37.4872 34.1591 37.7913 34.607 38.0194 35.1233C38.2475 35.6396 38.3615 36.1863 38.3615 36.7633C38.3615 37.3404 38.2475 37.887 38.0194 38.4033C37.7913 38.9196 37.4872 39.3676 37.1071 39.7472C36.727 40.1269 36.2709 40.4306 35.7387 40.6583C35.2065 40.8861 34.6516 41 34.0738 41C33.496 41 32.9486 40.8861 32.4317 40.6583C31.9147 40.4306 31.4662 40.1269 31.0861 39.7472C30.7059 39.3676 30.4018 38.9196 30.1738 38.4033C29.9457 37.887 29.8317 37.3404 29.8317 36.7633C29.8317 36.1863 29.9457 35.6396 30.1738 35.1233C30.4018 34.607 30.7059 34.1591 31.0861 33.7794C31.4662 33.3998 31.9147 33.1037 32.4317 32.8911C32.9486 32.6785 33.496 32.5722 34.0738 32.5722ZM41.737 6.69667C42.5884 6.69667 43.2498 6.81055 43.7212 7.03833C44.1925 7.26611 44.527 7.54704 44.7247 7.88111C44.9223 8.21518 45.0136 8.57204 44.9984 8.95166C44.9832 9.3313 44.93 9.65778 44.8387 9.93111C44.7475 10.2044 44.5498 10.7663 44.2457 11.6167C43.9416 12.467 43.6147 13.4009 43.265 14.4183C42.9153 15.4357 42.5656 16.4456 42.2159 17.4478C41.8662 18.45 41.5849 19.2396 41.372 19.8167C40.9767 21.0315 40.4826 21.8743 39.8896 22.345C39.2966 22.8157 38.5592 23.0511 37.6773 23.0511H36.0808H33.1615H29.3299H25.0422H13.7299L14.3685 27.1511H37.4036C38.8633 27.1511 39.5931 27.7737 39.5931 29.0189C39.5931 29.6263 39.4486 30.1502 39.1598 30.5906C38.8709 31.0309 38.3007 31.2511 37.4492 31.2511H35.2597H31.0632H25.772H20.4351H16.0106H13.5474C12.9392 31.2511 12.4299 31.1144 12.0193 30.8411C11.6088 30.5678 11.2667 30.2109 10.993 29.7706C10.7193 29.3302 10.4989 28.8519 10.3316 28.3356C10.1644 27.8193 10.0351 27.3333 9.94389 26.8778C9.91348 26.6956 9.82985 26.2552 9.69301 25.5567C9.55617 24.8581 9.38892 23.985 9.19125 22.9372C8.99359 21.8894 8.77312 20.7202 8.52985 19.4294C8.28657 18.1387 8.0433 16.8404 7.80002 15.5344C7.22224 12.467 6.56844 9.05037 5.83861 5.28444H2.41755C1.96141 5.28444 1.58129 5.17056 1.2772 4.94278C0.973102 4.715 0.722224 4.44167 0.524563 4.12278C0.326902 3.80389 0.190059 3.46222 0.114035 3.09778C0.0380118 2.73333 0 2.39926 0 2.09556C0 1.48815 0.205264 0.987037 0.615791 0.592222C1.02632 0.197407 1.58129 0 2.28071 0H3.23861H4.1965H5.33686H6.88774C7.49593 0 7.98248 0.0911108 8.34739 0.273333C8.71231 0.455555 9.0012 0.683333 9.21406 0.956666C9.42693 1.23 9.57897 1.51852 9.6702 1.82222C9.76143 2.12593 9.83746 2.38407 9.89827 2.59667C9.95909 2.83963 10.0199 3.1813 10.0807 3.62167C10.1415 4.06204 10.2024 4.51 10.2632 4.96556C10.3544 5.51222 10.4456 6.08926 10.5369 6.69667H41.737Z" fill="#4FCCFC"/>
    <path d="M21 15H30" stroke="white" stroke-width="2" stroke-linecap="round" stroke-linejoin="round"/>
</svg>
