<svg width="28" height="28" viewBox="0 0 28 28" fill="none" xmlns="http://www.w3.org/2000/svg">
    <path d="M7.84278 27.0568C8.5473 27.0568 9.06642 26.7052 9.91927 25.9393L14.1588 22.1472H21.5995C25.3199 22.1472 27.4087 19.9624 27.4087 16.2331V6.47663C27.4087 2.74734 25.3199 0.5625 21.5995 0.5625H5.84046C2.13245 0.5625 0.03125 2.74734 0.03125 6.47663V16.2331C0.03125 19.9749 2.19425 22.1472 5.75394 22.1472H6.2607V25.2235C6.2607 26.3411 6.84162 27.0568 7.84278 27.0568ZM8.46078 24.2441V20.6655C8.46078 19.9247 8.13942 19.6359 7.44726 19.6359H5.92698C3.6033 19.6359 2.49089 18.443 2.49089 16.1577V6.55197C2.49089 4.26668 3.6033 3.07381 5.92698 3.07381H21.5253C23.8366 3.07381 24.9491 4.26668 24.9491 6.55197V16.1577C24.9491 18.443 23.8366 19.6359 21.5253 19.6359H14.0228C13.2688 19.6359 12.898 19.7615 12.3789 20.3139L8.46078 24.2441Z" fill="#3498DB"/>
    <path d="M19.0133 10.2793H15.0391V6.30518C15.0391 5.57659 14.443 4.98047 13.7144 4.98047C12.9858 4.98047 12.3897 5.57659 12.3897 6.30518V10.2793H8.41554C7.68694 10.2793 7.09082 10.8754 7.09082 11.604C7.09082 12.3326 7.68694 12.9288 8.41554 12.9288H12.3897V16.9029C12.3897 17.6315 12.9858 18.2276 13.7144 18.2276C14.443 18.2276 15.0391 17.6315 15.0391 16.9029V12.9288H19.0133C19.7418 12.9288 20.338 12.3326 20.338 11.604C20.338 10.8754 19.7418 10.2793 19.0133 10.2793Z" fill="#3498DB"/>
</svg>
