<svg width="18" height="18" viewBox="0 0 18 18" fill="none" xmlns="http://www.w3.org/2000/svg">
<path d="M14.6667 0H3.33333C1.5 0 0 1.62 0 3.6V14.4C0 16.38 1.5 18 3.33333 18H14.6667C16.5 18 18 16.38 18 14.4V3.6C18 1.62 16.5 0 14.6667 0ZM16.6667 14.4C16.6667 15.588 15.7667 16.56 14.6667 16.56H3.33333C2.23333 16.56 1.33333 15.588 1.33333 14.4V3.6C1.33333 2.412 2.23333 1.44 3.33333 1.44H14.6667C15.7667 1.44 16.6667 2.412 16.6667 3.6V14.4Z" fill="#253947"/>
<path d="M5.66536 8.28094C6.76536 8.28094 7.66536 7.30894 7.66536 6.12094C7.66536 4.93294 6.76536 3.96094 5.66536 3.96094C4.56536 3.96094 3.66536 4.93294 3.66536 6.12094C3.66536 7.30894 4.56536 8.28094 5.66536 8.28094ZM5.66536 5.40094C6.03203 5.40094 6.33203 5.72494 6.33203 6.12094C6.33203 6.51694 6.03203 6.84094 5.66536 6.84094C5.2987 6.84094 4.9987 6.51694 4.9987 6.12094C4.9987 5.72494 5.2987 5.40094 5.66536 5.40094ZM15.2987 13.9329L15.232 13.8609L11.532 9.86494C10.9987 9.28894 10.1654 9.28894 9.63203 9.86494L7.96536 11.6649L7.1987 10.8369C6.66536 10.2609 5.83203 10.2609 5.2987 10.8369L2.4987 13.8609C2.3987 14.0049 2.33203 14.1849 2.33203 14.4009C2.33203 14.7969 2.63203 15.1209 2.9987 15.1209C3.1987 15.1209 3.33203 15.0489 3.46536 14.9049L6.26536 11.8809L9.06536 14.9049C9.1987 15.0489 9.36537 15.1209 9.56536 15.1209C9.93203 15.1209 10.232 14.7969 10.232 14.4009C10.232 14.1849 10.132 14.0049 10.032 13.8609L8.93203 12.6729L10.5987 10.8729L14.3654 14.9409C14.4987 15.0489 14.632 15.1209 14.7987 15.1209C15.1654 15.1209 15.4654 14.7969 15.4654 14.4009C15.4654 14.2209 15.3987 14.0409 15.2987 13.9329Z" fill="#253947"/>
</svg>
