<svg width="16" height="18" viewBox="0 0 16 18" fill="none" xmlns="http://www.w3.org/2000/svg">
<path d="M11.2344 16.6154H1.72458C1.57676 16.6154 1.47822 16.5231 1.47822 16.3846V1.61538C1.47822 1.47692 1.57676 1.38462 1.72458 1.38462H8.86929V4.84615C8.86929 5.72308 9.65767 6.46154 10.5939 6.46154H14.2894V7.29231C14.2894 7.66154 14.6343 7.98462 15.0285 7.98462C15.4227 7.98462 15.7676 7.66154 15.7676 7.29231V4.38462C15.7676 4.2 15.6691 4.01539 15.5705 3.87692L11.6286 0.184615C11.4808 0.0461538 11.2837 0 11.0866 0H1.72458C0.788382 0 0 0.738462 0 1.61538V16.3846C0 17.2615 0.788382 18 1.72458 18H11.2344C11.6286 18 11.9735 17.6769 11.9735 17.3077C11.9735 16.9385 11.6286 16.6154 11.2344 16.6154ZM14.2894 4.70769V5.07692H10.5939C10.4461 5.07692 10.3475 4.98462 10.3475 4.84615V1.38462H10.791L14.2894 4.70769Z" fill="#253947"/>
<path d="M3.42901 9.46094C3.13336 9.46094 2.98554 9.50709 2.83772 9.5994C2.6899 9.69171 2.64062 9.87632 2.64062 10.1071V14.584C2.64062 14.7225 2.6899 14.8609 2.78845 14.9994C2.88699 15.0917 3.03482 15.184 3.28118 15.184C3.52755 15.184 3.67538 15.0917 3.77392 14.9994C3.87247 14.9071 3.92174 14.7686 3.92174 14.584V13.1994H4.66085C5.99125 13.1994 6.73035 12.5532 6.73035 11.3071C6.73035 10.7071 6.53326 10.1994 6.18834 9.92248C5.84342 9.5994 5.35069 9.46094 4.66085 9.46094H3.42901ZM5.44923 11.3071C5.44923 11.584 5.39996 11.8148 5.25214 11.9071C5.15359 11.9994 4.90722 12.0917 4.61158 12.0917H3.87247V10.5686H4.61158C4.90722 10.5686 5.10432 10.6148 5.25214 10.7532C5.39996 10.8456 5.44923 11.0302 5.44923 11.3071ZM11.165 10.2917C10.9679 10.0148 10.6723 9.83017 10.3766 9.64555C10.0317 9.55325 9.63751 9.46094 9.19405 9.46094H7.7651C7.56801 9.46094 7.37091 9.46094 7.22309 9.64555C7.17382 9.73786 7.12454 9.87632 7.12454 10.0609V14.5379C7.12454 14.7225 7.17382 14.8609 7.22309 14.9532C7.37091 15.1379 7.56801 15.1379 7.7651 15.1379H9.24332C9.68678 15.1379 10.0317 15.0456 10.3766 14.9071C10.6723 14.7686 10.9679 14.5379 11.165 14.2609C11.3621 13.984 11.5099 13.7071 11.6085 13.3379C11.707 13.0148 11.7563 12.6456 11.7563 12.2763C11.7563 11.9071 11.707 11.5379 11.6085 11.2148C11.5099 10.8917 11.3621 10.5686 11.165 10.2917ZM10.1795 13.6148C9.98243 13.8917 9.68678 14.0302 9.29259 14.0302H8.40566V10.5686H9.04622C9.53896 10.5686 9.93315 10.7071 10.1302 10.984C10.3766 11.2609 10.4752 11.7225 10.4752 12.2763C10.5244 12.8763 10.3766 13.2917 10.1795 13.6148ZM15.4025 9.46094H12.9389C12.7418 9.46094 12.5447 9.50709 12.4461 9.5994C12.2983 9.69171 12.249 9.87632 12.249 10.0609V14.584C12.249 14.7225 12.2983 14.8609 12.3968 14.9532C12.4954 15.0917 12.6432 15.1379 12.8896 15.1379C13.0867 15.1379 13.2838 15.0917 13.3823 14.9532C13.4316 14.8609 13.5301 14.7686 13.5301 14.5379V12.6917H15.2055C15.5011 12.6917 15.7475 12.5532 15.7967 12.3225C15.846 12.1379 15.846 11.9994 15.7967 11.9532C15.7475 11.8609 15.6489 11.584 15.2055 11.584H13.4809V10.5225H15.3533C15.5504 10.5225 15.6982 10.4763 15.7967 10.4302C15.8953 10.384 15.9938 10.2456 15.9938 9.96863C16.0431 9.69171 15.7967 9.46094 15.4025 9.46094Z" fill="#253947"/>
</svg>
