<svg width="22" height="22" viewBox="0 0 22 22" fill="none" xmlns="http://www.w3.org/2000/svg">
<path d="M17.136 7.23705C17.3848 7.09978 17.6997 7.19685 17.8072 7.45989C18.9481 10.2508 18.2051 13.6152 15.9102 15.9101C14.694 17.1263 13.0567 17.9215 11.3882 18.1585C11.0974 18.1998 10.8499 17.9629 10.856 17.6692L10.8608 17.4376C10.8661 17.1796 11.0674 16.9701 11.323 16.9338C12.8034 16.7234 14.0676 16.0275 15.0476 15.0475C16.9093 13.1858 17.5416 10.4145 16.6228 8.05929C16.5262 7.81165 16.6156 7.52416 16.8484 7.39575L17.136 7.23705Z" fill="#8B8B8B"/>
<path d="M11.4145 19.1179C11.3396 19.5385 10.8404 19.7237 10.5093 19.4538L8.09766 17.4877C7.76486 17.2164 7.84865 16.6869 8.24897 16.5316L11.2156 15.3806C11.6228 15.2227 12.046 15.5709 11.9695 16.0009L11.4145 19.1179Z" fill="#8B8B8B"/>
<path d="M9.86017 3.05005C10.1382 3.01185 10.3795 3.22837 10.3922 3.50871L10.407 3.83384C10.4192 4.10307 10.2154 4.33156 9.94912 4.37283C8.61207 4.58 7.29553 5.2074 6.25155 6.25138C4.38968 8.11326 3.75746 10.8848 4.67649 13.2401C4.77304 13.4875 4.68393 13.7748 4.45151 13.9034L4.19232 14.0467C3.93321 14.1901 3.60568 14.0781 3.50631 13.7992C2.43518 10.7926 3.093 7.51373 5.30345 5.30328C6.52809 4.07865 8.17963 3.28093 9.86017 3.05005Z" fill="#8B8B8B"/>
<path d="M9.98212 1.96757C10.0554 1.59826 10.4951 1.43937 10.7875 1.67653L13.2836 3.70099C13.5818 3.9428 13.5075 4.41648 13.1496 4.55542L10.0101 5.77443C9.64238 5.91719 9.26189 5.59791 9.33865 5.21103L9.98212 1.96757Z" fill="#8B8B8B"/>
</svg>
