<svg width="22" height="22" viewBox="0 0 22 22" fill="none" xmlns="http://www.w3.org/2000/svg">
<path d="M17.4378 7.52405C17.6841 7.39176 17.9927 7.48676 18.1034 7.74349C19.3445 10.6235 18.66 14.0587 16.3575 16.3613C15.1338 17.5849 13.4659 18.3643 11.7561 18.5653C11.4725 18.5986 11.2335 18.3696 11.2335 18.0841L11.2335 17.8241C11.2335 17.5581 11.4422 17.3408 11.7062 17.3082C13.2085 17.1225 14.4808 16.4397 15.4583 15.4622C17.3215 13.599 17.908 10.7796 16.9168 8.35388C16.8145 8.10353 16.9057 7.80985 17.144 7.68188L17.4378 7.52405Z" fill="white"/>
<path d="M11.8367 19.5288C11.7692 19.9565 11.2625 20.149 10.928 19.874L8.39187 17.7891C8.05799 17.5146 8.14773 16.9814 8.55308 16.8314L11.5963 15.7048C11.9976 15.5562 12.4106 15.8945 12.3438 16.3173L11.8367 19.5288Z" fill="white"/>
<path d="M9.93621 3.09647C10.2071 3.06583 10.4399 3.27498 10.4579 3.54697L10.4814 3.90278C10.4997 4.17968 10.2886 4.4166 10.0136 4.45415C8.65691 4.63942 7.33064 5.25169 6.28978 6.29254C4.4265 8.15583 3.84009 10.9755 4.83156 13.4014C4.93379 13.6515 4.84281 13.9449 4.60491 14.0731L4.33813 14.2168C4.08186 14.3548 3.76098 14.2456 3.658 13.9734C2.48469 10.8716 3.08362 7.52223 5.30155 5.3043C6.53314 4.07271 8.2148 3.29118 9.93621 3.09647Z" fill="white"/>
<path d="M10.0061 2.00777C10.0731 1.63202 10.5195 1.4669 10.8149 1.70857L13.4353 3.85214C13.7344 4.09679 13.6548 4.57375 13.2925 4.708L10.0771 5.89937C9.71455 6.03371 9.34325 5.72333 9.41115 5.34271L10.0061 2.00777Z" fill="white"/>
</svg>
