<svg width="13" height="16" viewBox="0 0 13 16" fill="none" xmlns="http://www.w3.org/2000/svg">
<path d="M0 13.9324C0 15.2962 0.698656 16 2.03359 16H7.87236C9.20729 16 9.90595 15.2899 9.90595 13.9324V12.7698H10.9664C12.3013 12.7698 13 12.0597 13 10.7023V5.73134C13 4.90181 12.8253 4.37392 12.3325 3.86489L9.22601 0.672427C8.75192 0.188531 8.1905 0 7.47313 0H5.12764C3.79271 0 3.09405 0.710134 3.09405 2.07384V3.23017H2.03359C0.698656 3.23017 0 3.94658 0 5.30401V13.9324ZM9.27591 7.32129L5.89491 3.86489C5.42083 3.38099 5.01536 3.24902 4.33541 3.23645V2.14925C4.33541 1.57738 4.63484 1.25687 5.23369 1.25687H7.83493V4.24195C7.83493 5.02121 8.24664 5.42969 9.01392 5.42969H11.7524V10.6206C11.7524 11.1987 11.453 11.5192 10.8541 11.5192H9.90595V9.10605C9.90595 8.25766 9.7999 7.86174 9.27591 7.32129ZM8.8642 4.08484V1.76591L11.428 4.39277H9.16987C8.95154 4.39277 8.8642 4.30479 8.8642 4.08484ZM1.24136 13.8507V5.3857C1.24136 4.80754 1.54079 4.48704 2.14587 4.48704H4.04846V7.90573C4.04846 8.81697 4.49136 9.25687 5.38964 9.25687H8.66459V13.8507C8.66459 14.4289 8.36516 14.7494 7.76008 14.7494H2.13964C1.54079 14.7494 1.24136 14.4289 1.24136 13.8507ZM5.50816 8.15711C5.2524 8.15711 5.14012 8.05027 5.14012 7.78633V4.72584L8.49616 8.15711H5.50816Z" fill="white"/>
</svg>
