<svg width="37" height="37" viewBox="0 0 37 37" fill="none" xmlns="http://www.w3.org/2000/svg">
<path d="M20.1818 3.36364C20.1818 1.50595 21.6878 0 23.5455 0H33.6364C35.494 0 37 1.50595 37 3.36364V13.4545C37 15.3122 35.494 16.8182 33.6364 16.8182H23.5455C21.6878 16.8182 20.1818 15.3122 20.1818 13.4545V3.36364Z" fill="white"/>
<path d="M0 3.36364C0 1.50595 1.50595 0 3.36364 0H13.4545C15.3122 0 16.8182 1.50595 16.8182 3.36364V13.4545C16.8182 15.3122 15.3122 16.8182 13.4545 16.8182H3.36364C1.50595 16.8182 0 15.3122 0 13.4545V3.36364Z" fill="white"/>
<path d="M20.1818 23.5455C20.1818 21.6878 21.6878 20.1818 23.5455 20.1818H33.6364C35.494 20.1818 37 21.6878 37 23.5455V33.6364C37 35.494 35.494 37 33.6364 37H23.5455C21.6878 37 20.1818 35.494 20.1818 33.6364V23.5455Z" fill="white"/>
<path d="M0 23.5455C0 21.6878 1.50595 20.1818 3.36364 20.1818H13.4545C15.3122 20.1818 16.8182 21.6878 16.8182 23.5455V33.6364C16.8182 35.494 15.3122 37 13.4545 37H3.36364C1.50595 37 0 35.494 0 33.6364V23.5455Z" fill="white"/>
</svg>
