<svg width="14" height="16" viewBox="0 0 14 16" fill="none" xmlns="http://www.w3.org/2000/svg">
<path d="M3.64879 16H10.3583C11.3289 16 11.8957 15.4779 11.9383 14.5051L12.3846 4.16987H13.3623C13.7237 4.16987 14 3.88377 14 3.52615C14 3.16853 13.7166 2.89674 13.3623 2.89674H10.2874V1.82387C10.2874 0.679481 9.55769 0 8.33907 0H5.64676C4.42814 0 3.69838 0.679481 3.69838 1.82387V2.89674H0.637652C0.283401 2.89674 0 3.17568 0 3.52615C0 3.89093 0.283401 4.16987 0.637652 4.16987H1.62247L2.07591 14.5051C2.11134 15.4779 2.67814 16 3.64879 16ZM5.17206 1.88824C5.17206 1.56638 5.3917 1.35896 5.74595 1.35896H8.24696C8.60121 1.35896 8.82085 1.56638 8.82085 1.88824V2.89674H5.17206V1.88824ZM4.72571 13.8042C4.44231 13.8042 4.24393 13.6182 4.23684 13.3321L4.02429 5.73625C4.01721 5.45016 4.21559 5.25704 4.51316 5.25704C4.79656 5.25704 4.99494 5.443 5.00202 5.7291L5.21457 13.325C5.22874 13.6111 5.03036 13.8042 4.72571 13.8042ZM7 13.8042C6.70243 13.8042 6.50405 13.6182 6.50405 13.3321V5.7291C6.50405 5.45016 6.70243 5.25704 7 5.25704C7.29757 5.25704 7.50304 5.45016 7.50304 5.7291V13.3321C7.50304 13.6182 7.29757 13.8042 7 13.8042ZM9.27429 13.8114C8.96964 13.8114 8.77125 13.6111 8.78542 13.3321L8.99798 5.7291C9.00506 5.443 9.20344 5.25704 9.48684 5.25704C9.78441 5.25704 9.98279 5.45016 9.97571 5.73625L9.76316 13.3321C9.75607 13.6182 9.55769 13.8114 9.27429 13.8114Z" fill="#8B8B8B"/>
</svg>