<svg width="15" height="15" viewBox="0 0 15 15" fill="none" xmlns="http://www.w3.org/2000/svg">
<path d="M14.556 2.12267L12.8776 0.444035C12.2828 -0.150862 11.3134 -0.146575 10.7187 0.448321L2.31172 8.85657C2.25025 8.91858 2.20136 8.9919 2.16774 9.07249L0.0553453 14.0555C-0.0630769 14.3349 0.0194692 14.6166 0.199325 14.7985C0.379181 14.9807 0.662854 15.0632 0.944305 14.9446L5.92883 12.8341C6.00931 12.8003 6.08123 12.7516 6.14472 12.6901L14.5517 4.28189C15.1466 3.68715 15.1508 2.71756 14.556 2.12267V2.12267ZM5.18179 11.4941L2.27362 12.7262L3.50546 9.81758L9.40641 3.91577L11.0827 5.59234L5.18179 11.4941ZM13.4723 3.20228L12.1601 4.5148L10.4838 2.83823L11.796 1.52571L11.8003 1.52158L13.4766 3.19815L13.4723 3.20228Z" fill="#8B8B8B"/>
</svg>