<svg width="37" height="44" viewBox="0 0 37 44" fill="none" xmlns="http://www.w3.org/2000/svg">
<path d="M0 6C0 2.68629 3.10602 0 6.9375 0H20.8125V14H37V38C37 41.3137 33.894 44 30.0625 44H6.9375C3.10602 44 0 41.3137 0 38V6Z" fill="white"/>
<path d="M25.4375 0L37 10H25.4375V0Z" fill="white"/>
<path d="M6.9375 22C6.9375 20.8954 7.97284 20 9.25 20H27.75C29.0272 20 30.0625 20.8954 30.0625 22C30.0625 23.1046 29.0272 24 27.75 24H9.25C7.97284 24 6.9375 23.1046 6.9375 22Z" fill="#3498DB"/>
<path d="M6.9375 32C6.9375 30.8954 7.97284 30 9.25 30H27.75C29.0272 30 30.0625 30.8954 30.0625 32C30.0625 33.1046 29.0272 34 27.75 34H9.25C7.97284 34 6.9375 33.1046 6.9375 32Z" fill="#3498DB"/>
</svg>
