<svg width="52" height="54" viewBox="0 0 52 54" fill="none" xmlns="http://www.w3.org/2000/svg">
<g filter="url(#filter0_d_269_381)">
<path d="M21.6643 12.0156H35.4619C38.4101 12.0156 40.5155 14.2713 40.5155 17.5656C40.5155 20.8599 38.4101 23.1156 35.4619 23.1156H12.5354C7.14852 23.1156 3 27.5348 3 33.5907C3 39.6466 7.14852 44.0628 12.5354 44.0628H41.2065C41.8008 44.0628 42.3708 43.8035 42.791 43.3419C43.2113 42.8804 43.4474 42.2544 43.4474 41.6017C43.4474 40.949 43.2113 40.323 42.791 39.8615C42.3708 39.4 41.8008 39.1407 41.2065 39.1407H12.5354C9.58723 39.1407 7.48181 36.882 7.48181 33.5907C7.48181 30.2994 9.58723 28.0377 12.5354 28.0377H35.4646C40.8515 28.0377 45 23.6185 45 17.5656C45 11.5127 40.8515 7.09058 35.4646 7.09058H6.79355C6.21235 7.11277 5.66171 7.38193 5.25771 7.84132C4.8537 8.30071 4.62789 8.91443 4.62789 9.55311C4.62789 10.1918 4.8537 10.8055 5.25771 11.2649C5.66171 11.7243 6.21235 11.9934 6.79355 12.0156H21.6643Z" fill="#ECF5FF"/>
<path d="M38.9293 34.6113H24.8633C22.5123 34.6113 20.6064 36.7044 20.6064 39.2864V41.3249C20.6064 43.9069 22.5123 46 24.8633 46H38.9293C41.2803 46 43.1862 43.9069 43.1862 41.3249V39.2864C43.1862 36.7044 41.2803 34.6113 38.9293 34.6113Z" fill="#3498DB" stroke="#ECF5FF" stroke-width="4" stroke-miterlimit="10"/>
<path d="M10.0593 15.3142C12.9042 15.3142 15.2104 12.7815 15.2104 9.65712C15.2104 6.53278 12.9042 4 10.0593 4C7.21443 4 4.9082 6.53278 4.9082 9.65712C4.9082 12.7815 7.21443 15.3142 10.0593 15.3142Z" fill="#3498DB" stroke="#ECF5FF" stroke-width="4" stroke-miterlimit="10"/>
<path d="M21.3113 24.1383L18.6768 21.245C17.953 20.4501 16.7795 20.4501 16.0556 21.245L13.4211 24.1383C12.6973 24.9332 12.6973 26.222 13.4211 27.0169L16.0556 29.9103C16.7795 30.7052 17.953 30.7052 18.6768 29.9103L21.3113 27.0169C22.0351 26.222 22.0351 24.9332 21.3113 24.1383Z" fill="#3498DB" stroke="#ECF5FF" stroke-width="4" stroke-miterlimit="10"/>
</g>
<defs>
<filter id="filter0_d_269_381" x="0.908203" y="0" width="50.278" height="54" filterUnits="userSpaceOnUse" color-interpolation-filters="sRGB">
<feFlood flood-opacity="0" result="BackgroundImageFix"/>
<feColorMatrix in="SourceAlpha" type="matrix" values="0 0 0 0 0 0 0 0 0 0 0 0 0 0 0 0 0 0 127 0" result="hardAlpha"/>
<feOffset dx="2" dy="2"/>
<feGaussianBlur stdDeviation="2"/>
<feComposite in2="hardAlpha" operator="out"/>
<feColorMatrix type="matrix" values="0 0 0 0 0.92549 0 0 0 0 0.960784 0 0 0 0 1 0 0 0 0.2 0"/>
<feBlend mode="normal" in2="BackgroundImageFix" result="effect1_dropShadow_269_381"/>
<feBlend mode="normal" in="SourceGraphic" in2="effect1_dropShadow_269_381" result="shape"/>
</filter>
</defs>
</svg>
