<svg width="70" height="59" viewBox="0 0 70 59" fill="none" xmlns="http://www.w3.org/2000/svg">
<path d="M25.1732 50.11H24.2332V53.15H20.9032V50.11H19.9732V57H20.9032V54H24.2332V57H25.1732V50.11ZM26.3933 50.11V50.99H28.4833V57H29.4233V50.99H31.5133V50.11H26.3933ZM36.3497 55.17L33.9197 50.11H33.0697L32.2297 57H33.1497L33.7797 51.82L35.9497 56.24H36.7697L38.9197 51.82L39.5497 57H40.4697L39.6297 50.11H38.7797L36.3497 55.17ZM41.9556 50.11V57H45.6956V56.13H42.8856V50.11H41.9556Z" fill="black"/>
<g filter="url(#filter0_d_3019_9281)">
<rect x="4" y="3.57422" width="58" height="39.4263" rx="2" fill="white"/>
<rect x="4.26111" y="3.83533" width="57.4778" height="38.9041" rx="1.73889" stroke="#3F55DB" stroke-width="0.522222"/>
</g>
<path d="M28.6907 34.4064C28.1702 34.2273 27.9084 33.6655 28.1061 33.1517L33.6919 18.6349C33.8896 18.121 34.4718 17.8497 34.9924 18.0289C35.513 18.208 35.7747 18.7698 35.577 19.2836L29.9913 33.8004C29.7936 34.3143 29.2113 34.5856 28.6907 34.4064Z" fill="#3F55DB" fill-opacity="0.5"/>
<path d="M4.26111 5.61111C4.26111 4.31324 5.31324 3.26111 6.61111 3.26111H59.3889C60.6868 3.26111 61.7389 4.31324 61.7389 5.61111V9.53823H4.26111V5.61111Z" fill="white" stroke="#3F55DB" stroke-width="0.522222"/>
<ellipse cx="14.2083" cy="6.42788" rx="1.20833" ry="1.14273" fill="#3F55DB"/>
<ellipse cx="9.20833" cy="6.42788" rx="1.20833" ry="1.14273" fill="#3F55DB"/>
<ellipse cx="19.2083" cy="6.42788" rx="1.20833" ry="1.14273" fill="#3F55DB"/>
<path d="M14.8751 25.8292C14.8751 26.0472 14.9775 26.2442 15.1494 26.394L15.2221 26.4518L15.9327 27.0165L22.0704 31.8948C22.4802 32.2205 23.1545 32.2205 23.5676 31.8948C23.9775 31.569 23.9775 31.0331 23.5676 30.7048L17.4267 25.8265L23.5643 20.9457C23.9742 20.62 23.9742 20.0841 23.5643 19.7557C23.1545 19.43 22.4802 19.43 22.0704 19.7583L15.9327 24.6365L15.2122 25.2092L15.1527 25.2565C14.9775 25.4062 14.8718 25.6085 14.8751 25.8292Z" fill="#3F55DB"/>
<path d="M49.3124 25.8232C49.3124 25.6051 49.21 25.4081 49.0381 25.2584L48.9654 25.2006L48.2548 24.6358L42.1171 19.7576C41.7073 19.4318 41.033 19.4318 40.6199 19.7576C40.21 20.0833 40.21 20.6192 40.6199 20.9476L46.7608 25.8258L40.6232 30.7066C40.2133 31.0324 40.2133 31.5683 40.6232 31.8966C41.033 32.2224 41.7073 32.2224 42.1171 31.894L48.2548 27.0158L48.9753 26.4431L49.0348 26.3958C49.21 26.2461 49.3157 26.0438 49.3124 25.8232Z" fill="#3F55DB"/>
<defs>
<filter id="filter0_d_3019_9281" x="0.866667" y="0.440885" width="68.4444" height="49.8702" filterUnits="userSpaceOnUse" color-interpolation-filters="sRGB">
<feFlood flood-opacity="0" result="BackgroundImageFix"/>
<feColorMatrix in="SourceAlpha" type="matrix" values="0 0 0 0 0 0 0 0 0 0 0 0 0 0 0 0 0 0 127 0" result="hardAlpha"/>
<feOffset dx="2.08889" dy="2.08889"/>
<feGaussianBlur stdDeviation="2.61111"/>
<feComposite in2="hardAlpha" operator="out"/>
<feColorMatrix type="matrix" values="0 0 0 0 0.247059 0 0 0 0 0.333333 0 0 0 0 0.858824 0 0 0 0.25 0"/>
<feBlend mode="normal" in2="BackgroundImageFix" result="effect1_dropShadow_3019_9281"/>
<feBlend mode="normal" in="SourceGraphic" in2="effect1_dropShadow_3019_9281" result="shape"/>
</filter>
</defs>
</svg>
