<svg width="24" height="24" viewBox="0 0 24 24" fill="none" xmlns="http://www.w3.org/2000/svg">
<g filter="url(#filter0_d_1_5540)">
<path d="M17.8698 16.0987L14.8917 13.1002C16.7807 10.3387 16.5016 6.53136 14.057 4.0771C11.2991 1.3082 6.82668 1.30735 4.06865 4.07626C1.31072 6.84513 1.31032 11.3342 4.06823 14.103C6.53955 16.5841 10.3863 16.8414 13.1436 14.8762L16.1062 17.8693C16.2754 18.0392 16.5561 18.0456 16.7253 17.8758L17.8764 16.7201C18.0455 16.5504 18.039 16.2685 17.8698 16.0987ZM9.08678 14.6407C6.04665 14.6407 3.58217 12.1664 3.58217 9.11428C3.58217 6.06212 6.04667 3.58785 9.08678 3.58787C12.1269 3.58787 14.5913 6.06214 14.5914 9.11428C14.5914 12.1664 12.1269 14.6407 9.08678 14.6407Z" fill="#8B8B8B"/>
<path d="M11.7951 7.81012C11.7949 7.99365 11.8403 8.17412 11.927 8.334L10.8646 9.46499C10.7088 9.3715 10.532 9.32238 10.3521 9.32259C10.175 9.32259 10.0083 9.36919 9.86281 9.45123L8.77951 8.31587C8.85738 8.16528 8.90166 7.9931 8.90166 7.81012C8.90166 7.2195 8.44129 6.74072 7.87338 6.74072C7.30547 6.74072 6.8451 7.2195 6.8451 7.81012C6.84491 7.9939 6.89047 8.1746 6.97736 8.33463L5.89636 9.47641C5.74403 9.38848 5.57262 9.34244 5.39839 9.34266C4.83048 9.34266 4.37012 9.82146 4.37012 10.4121C4.37012 11.0027 4.83048 11.4814 5.39839 11.4815C5.9663 11.4815 6.42667 11.0027 6.42667 10.4121C6.42667 10.2285 6.38214 10.0558 6.30379 9.90482L7.39216 8.75522C7.54034 8.83705 7.70559 8.87974 7.87336 8.87954C8.04814 8.87976 8.22006 8.83342 8.37274 8.74494L9.45162 9.87566C9.3676 10.0337 9.32363 10.2114 9.32385 10.392C9.32385 10.9826 9.78425 11.4614 10.3521 11.4614C10.92 11.4614 11.3804 10.9826 11.3804 10.392C11.3806 10.2209 11.3411 10.0523 11.2653 9.90053L12.3415 8.75488C12.4898 8.83693 12.6553 8.87975 12.8233 8.87954C13.3912 8.87954 13.8516 8.40075 13.8516 7.81012C13.8516 7.21953 13.3912 6.74074 12.8233 6.74072C12.2555 6.74071 11.7951 7.21953 11.7951 7.81012V7.81012Z" fill="#8B8B8B"/>
</g>
<defs>
<filter id="filter0_d_1_5540" x="0" y="0" width="24" height="24" filterUnits="userSpaceOnUse" color-interpolation-filters="sRGB">
<feFlood flood-opacity="0" result="BackgroundImageFix"/>
<feColorMatrix in="SourceAlpha" type="matrix" values="0 0 0 0 0 0 0 0 0 0 0 0 0 0 0 0 0 0 127 0" result="hardAlpha"/>
<feOffset dx="2" dy="2"/>
<feGaussianBlur stdDeviation="2"/>
<feComposite in2="hardAlpha" operator="out"/>
<feColorMatrix type="matrix" values="0 0 0 0 0.92549 0 0 0 0 0.960784 0 0 0 0 1 0 0 0 0.2 0"/>
<feBlend mode="normal" in2="BackgroundImageFix" result="effect1_dropShadow_1_5540"/>
<feBlend mode="normal" in="SourceGraphic" in2="effect1_dropShadow_1_5540" result="shape"/>
</filter>
</defs>
</svg>