<svg width="28" height="25" viewBox="0 0 28 25" fill="none" xmlns="http://www.w3.org/2000/svg">
    <path d="M0.367188 4.42467C0.367188 2.53359 1.7125 0.996094 3.36719 0.996094H24.3672C26.0219 0.996094 27.3672 2.53359 27.3672 4.42467V21.5675C27.3672 23.4586 26.0219 24.9961 24.3672 24.9961H3.36719C1.7125 24.9961 0.367188 23.4586 0.367188 21.5675V4.42467ZM6.36719 14.7104C7.19688 14.7104 7.86719 13.9443 7.86719 12.9961C7.86719 12.0479 7.19688 11.2818 6.36719 11.2818C5.5375 11.2818 4.86719 12.0479 4.86719 12.9961C4.86719 13.9443 5.5375 14.7104 6.36719 14.7104ZM7.86719 7.85324C7.86719 6.90502 7.19688 6.13895 6.36719 6.13895C5.5375 6.13895 4.86719 6.90502 4.86719 7.85324C4.86719 8.80145 5.5375 9.56752 6.36719 9.56752C7.19688 9.56752 7.86719 8.80145 7.86719 7.85324ZM6.36719 19.8532C7.19688 19.8532 7.86719 19.0872 7.86719 18.139C7.86719 17.1907 7.19688 16.4247 6.36719 16.4247C5.5375 16.4247 4.86719 17.1907 4.86719 18.139C4.86719 19.0872 5.5375 19.8532 6.36719 19.8532ZM10.8672 6.56752C10.2438 6.56752 9.74219 7.14074 9.74219 7.85324C9.74219 8.56574 10.2438 9.13895 10.8672 9.13895H21.3672C21.9906 9.13895 22.4922 8.56574 22.4922 7.85324C22.4922 7.14074 21.9906 6.56752 21.3672 6.56752H10.8672ZM10.8672 11.7104C10.2438 11.7104 9.74219 12.2836 9.74219 12.9961C9.74219 13.7086 10.2438 14.2818 10.8672 14.2818H21.3672C21.9906 14.2818 22.4922 13.7086 22.4922 12.9961C22.4922 12.2836 21.9906 11.7104 21.3672 11.7104H10.8672ZM10.8672 16.8532C10.2438 16.8532 9.74219 17.4265 9.74219 18.139C9.74219 18.8515 10.2438 19.4247 10.8672 19.4247H21.3672C21.9906 19.4247 22.4922 18.8515 22.4922 18.139C22.4922 17.4265 21.9906 16.8532 21.3672 16.8532H10.8672Z" fill="#3498DB"/>
</svg>
