<svg width="28" height="28" viewBox="0 0 28 28" fill="none" xmlns="http://www.w3.org/2000/svg">
<path d="M21 15C21.2652 15 21.5196 14.8946 21.7071 14.7071C21.8946 14.5196 22 14.2652 22 14C22 13.7348 21.8946 13.4804 21.7071 13.2929C21.5196 13.1054 21.2652 13 21 13V15ZM7 13C6.73478 13 6.48043 13.1054 6.29289 13.2929C6.10536 13.4804 6 13.7348 6 14C6 14.2652 6.10536 14.5196 6.29289 14.7071C6.48043 14.8946 6.73478 15 7 15V13ZM13 21C13 21.2652 13.1054 21.5196 13.2929 21.7071C13.4804 21.8946 13.7348 22 14 22C14.2652 22 14.5196 21.8946 14.7071 21.7071C14.8946 21.5196 15 21.2652 15 21H13ZM15 7C15 6.73478 14.8946 6.48043 14.7071 6.29289C14.5196 6.10536 14.2652 6 14 6C13.7348 6 13.4804 6.10536 13.2929 6.29289C13.1054 6.48043 13 6.73478 13 7H15ZM21 13H7V15H21V13ZM15 21V7H13V21H15ZM26 14C26 20.627 20.627 26 14 26V28C21.732 28 28 21.732 28 14H26ZM14 26C7.373 26 2 20.627 2 14H0C0 21.732 6.268 28 14 28V26ZM2 14C2 7.373 7.373 2 14 2V0C6.268 0 0 6.268 0 14H2ZM14 2C20.627 2 26 7.373 26 14H28C28 6.268 21.732 0 14 0V2Z" fill="white"/>
</svg>
