<svg width="45" height="41" viewBox="0 0 45 41" fill="none" xmlns="http://www.w3.org/2000/svg">
    <path d="M15.0983 32.848C15.6761 32.848 16.2234 32.9498 16.7404 33.1532C17.2574 33.3566 17.7059 33.64 18.086 34.0033C18.4661 34.3665 18.7702 34.7952 18.9983 35.2893C19.2264 35.7833 19.3404 36.3064 19.3404 36.8586C19.3404 37.4108 19.2264 37.9339 18.9983 38.428C18.7702 38.9221 18.4661 39.3507 18.086 39.714C17.7059 40.0773 17.2574 40.3679 16.7404 40.5859C16.2234 40.8038 15.6761 40.9128 15.0983 40.9128C14.4901 40.9128 13.9275 40.8038 13.4106 40.5859C12.8936 40.3679 12.4451 40.0773 12.0649 39.714C11.6848 39.3507 11.3807 38.9221 11.1527 38.428C10.9246 37.9339 10.8106 37.4108 10.8106 36.8586C10.8106 36.3064 10.9246 35.7833 11.1527 35.2893C11.3807 34.7952 11.6848 34.3665 12.0649 34.0033C12.4451 33.64 12.8936 33.3566 13.4106 33.1532C13.9275 32.9498 14.4901 32.848 15.0983 32.848ZM34.0738 32.9352C34.6516 32.9352 35.2065 33.0369 35.7387 33.2404C36.2709 33.4438 36.727 33.7272 37.1071 34.0905C37.4872 34.4537 37.7913 34.8824 38.0194 35.3765C38.2475 35.8705 38.3615 36.3936 38.3615 36.9458C38.3615 37.498 38.2475 38.0211 38.0194 38.5152C37.7913 39.0092 37.4872 39.4379 37.1071 39.8012C36.727 40.1645 36.2709 40.4551 35.7387 40.673C35.2065 40.891 34.6516 41 34.0738 41C33.496 41 32.9486 40.891 32.4317 40.673C31.9147 40.4551 31.4662 40.1645 31.0861 39.8012C30.7059 39.4379 30.4018 39.0092 30.1738 38.5152C29.9457 38.0211 29.8317 37.498 29.8317 36.9458C29.8317 36.3936 29.9457 35.8705 30.1738 35.3765C30.4018 34.8824 30.7059 34.4537 31.0861 34.0905C31.4662 33.7272 31.9147 33.4438 32.4317 33.2404C32.9486 33.0369 33.496 32.9352 34.0738 32.9352ZM41.737 8.17421C42.5884 8.17421 43.2498 8.2832 43.7212 8.50116C44.1925 8.71913 44.527 8.98796 44.7247 9.30764C44.9223 9.62733 45.0136 9.96881 44.9984 10.3321C44.9832 10.6954 44.93 11.0078 44.8387 11.2693C44.7475 11.5309 44.5498 12.0686 44.2457 12.8823C43.9416 13.696 43.6147 14.5897 43.265 15.5633C42.9153 16.5369 42.5656 17.5032 42.2159 18.4622C41.8662 19.4213 41.5849 20.1769 41.372 20.7291C40.9767 21.8916 40.4826 22.6981 39.8896 23.1485C39.2966 23.599 38.5592 23.8242 37.6773 23.8242H36.0808H33.1615H29.3299H25.0422H13.7299L14.3685 27.7476H37.4036C38.8633 27.7476 39.5931 28.3434 39.5931 29.535C39.5931 30.1162 39.4486 30.6175 39.1598 31.0389C38.8709 31.4603 38.3007 31.671 37.4492 31.671H35.2597H31.0632H25.772H20.4351H16.0106H13.5474C12.9392 31.671 12.4299 31.5402 12.0193 31.2787C11.6088 31.0171 11.2667 30.6756 10.993 30.2542C10.7193 29.8328 10.4989 29.3751 10.3316 28.8811C10.1644 28.387 10.0351 27.922 9.94389 27.4861C9.91348 27.3117 9.82985 26.8903 9.69301 26.2219C9.55617 25.5534 9.38892 24.7179 9.19125 23.7152C8.99359 22.7126 8.77312 21.5937 8.52985 20.3586C8.28657 19.1234 8.0433 17.881 7.80002 16.6313C7.22224 13.696 6.56844 10.4265 5.83861 6.82282H2.41755C1.96141 6.82282 1.58129 6.71384 1.2772 6.49587C0.973102 6.2779 0.722224 6.01634 0.524563 5.71119C0.326902 5.40604 0.190059 5.07909 0.114035 4.73034C0.0380118 4.38159 0 4.06191 0 3.77129C0 3.19004 0.205264 2.71052 0.615791 2.33271C1.02632 1.9549 1.58129 1.76599 2.28071 1.76599H3.23861H4.1965H5.33686H6.88774C7.49593 1.76599 7.98248 1.85318 8.34739 2.02755C8.71231 2.20193 9.0012 2.41989 9.21406 2.68145C9.42693 2.94301 9.57897 3.2191 9.6702 3.50973C9.76143 3.80035 9.83746 4.04738 9.89827 4.25081C9.95909 4.48331 10.0199 4.81026 10.0807 5.23166C10.1415 5.65307 10.2024 6.08173 10.2632 6.51767C10.3544 7.04079 10.4456 7.59297 10.5369 8.17421H41.737ZM38.3159 6.77923H21.6211L27.6422 1.02491C28.3416 0.356476 29.1094 0.0149949 29.9457 0.000463759C30.782 -0.0140674 31.5498 0.312883 32.2492 0.981314L38.3159 6.77923Z" fill="#4FCCFC"/>
    <path d="M25.2873 12.2078C25.2873 11.5597 24.8476 11.1172 24.1637 11.1172C23.4798 11.1172 23.0401 11.5597 23.0401 12.2078L23.0401 15.195L19.9624 15.195C19.2948 15.195 18.8388 15.6218 18.8388 16.2856C18.8388 16.9495 19.2948 17.3762 19.9624 17.3762L23.0401 17.3762L23.0401 20.3635C23.0401 21.0115 23.4797 21.4383 24.1637 21.4383C24.8476 21.4383 25.2873 21.0115 25.2873 20.3635L25.2873 17.3762L28.3649 17.3762C29.0326 17.3762 29.4885 16.9495 29.4722 16.2856C29.4722 15.6218 29.0163 15.195 28.3649 15.195L25.2873 15.195L25.2873 12.2078Z" fill="white"/>
</svg>
