<?xml version="1.0" encoding="UTF-8"?>
<!DOCTYPE svg PUBLIC "-//W3C//DTD SVG 1.1//EN" "http://www.w3.org/Graphics/SVG/1.1/DTD/svg11.dtd">
<svg xmlns="http://www.w3.org/2000/svg" version="1.1" width="512px" height="512px" style="shape-rendering:geometricPrecision; text-rendering:geometricPrecision; image-rendering:optimizeQuality; fill-rule:evenodd; clip-rule:evenodd" xmlns:xlink="http://www.w3.org/1999/xlink">
<g><path style="opacity:1" fill="#fbfbfb" d="M -0.5,-0.5 C 78.5,-0.5 157.5,-0.5 236.5,-0.5C 236.5,-0.166667 236.5,0.166667 236.5,0.5C 150.348,9.17438 83.8479,49.8411 37,122.5C 10.1733,167.603 -1.99341,216.603 0.5,269.5C 0.166667,269.5 -0.166667,269.5 -0.5,269.5C -0.5,179.5 -0.5,89.5 -0.5,-0.5 Z"/></g>
<g><path style="opacity:1" fill="#fafafa" d="M 236.5,0.5 C 236.5,0.166667 236.5,-0.166667 236.5,-0.5C 328.167,-0.5 419.833,-0.5 511.5,-0.5C 511.5,89.5 511.5,179.5 511.5,269.5C 511.167,269.5 510.833,269.5 510.5,269.5C 513.113,194.487 488.779,130.153 437.5,76.5C 437.167,74.1667 435.833,72.8333 433.5,72.5C 430.167,69.8333 427.167,66.8333 424.5,63.5C 424.027,62.0937 423.027,61.427 421.5,61.5C 419.833,60.5 418.5,59.1667 417.5,57.5C 417.027,56.0937 416.027,55.427 414.5,55.5C 409.948,52.3975 405.614,49.0642 401.5,45.5C 401.027,44.0937 400.027,43.427 398.5,43.5C 398.027,42.0937 397.027,41.427 395.5,41.5C 395.027,40.0937 394.027,39.427 392.5,39.5C 372.457,27.7099 351.457,18.0433 329.5,10.5C 327.485,9.07619 325.152,8.40953 322.5,8.5C 294.258,1.5106 265.592,-1.15607 236.5,0.5 Z"/></g>
<g><path style="opacity:1" fill="#3e54da" d="M 236.5,0.5 C 265.592,-1.15607 294.258,1.5106 322.5,8.5C 324.515,9.92381 326.848,10.5905 329.5,10.5C 351.457,18.0433 372.457,27.7099 392.5,39.5C 392.973,40.9063 393.973,41.573 395.5,41.5C 395.973,42.9063 396.973,43.573 398.5,43.5C 398.973,44.9063 399.973,45.573 401.5,45.5C 405.614,49.0642 409.948,52.3975 414.5,55.5C 414.973,56.9063 415.973,57.573 417.5,57.5C 418.5,59.1667 419.833,60.5 421.5,61.5C 421.973,62.9063 422.973,63.573 424.5,63.5C 427.167,66.8333 430.167,69.8333 433.5,72.5C 434.5,74.1667 435.833,75.5 437.5,76.5C 488.779,130.153 513.113,194.487 510.5,269.5C 509.385,287.408 506.718,305.075 502.5,322.5C 501.076,324.515 500.41,326.848 500.5,329.5C 492.957,351.457 483.29,372.457 471.5,392.5C 470.094,392.973 469.427,393.973 469.5,395.5C 468.094,395.973 467.427,396.973 467.5,398.5C 466.094,398.973 465.427,399.973 465.5,401.5C 461.936,405.614 458.603,409.948 455.5,414.5C 454.094,414.973 453.427,415.973 453.5,417.5C 451.833,418.5 450.5,419.833 449.5,421.5C 448.094,421.973 447.427,422.973 447.5,424.5C 444.167,427.167 441.167,430.167 438.5,433.5C 433.833,437.5 429.5,441.833 425.5,446.5C 424.833,446.5 424.5,446.833 424.5,447.5C 421.573,448.757 419.239,450.757 417.5,453.5C 410.98,457.925 404.647,462.592 398.5,467.5C 396.973,467.427 395.973,468.094 395.5,469.5C 374.755,482.525 352.755,492.858 329.5,500.5C 326.848,500.41 324.515,501.076 322.5,502.5C 305.075,506.718 287.408,509.385 269.5,510.5C 194.487,513.113 130.153,488.779 76.5,437.5C 75.5,435.833 74.1667,434.5 72.5,433.5C 69.8333,430.167 66.8333,427.167 63.5,424.5C 63.573,422.973 62.9063,421.973 61.5,421.5C 60.5,419.833 59.1667,418.5 57.5,417.5C 57.573,415.973 56.9063,414.973 55.5,414.5C 52.3975,409.948 49.0642,405.614 45.5,401.5C 45.573,399.973 44.9063,398.973 43.5,398.5C 43.573,396.973 42.9063,395.973 41.5,395.5C 41.573,393.973 40.9063,392.973 39.5,392.5C 27.7099,372.457 18.0433,351.457 10.5,329.5C 10.5905,326.848 9.92381,324.515 8.5,322.5C 4.28199,305.075 1.61532,287.408 0.5,269.5C -1.99341,216.603 10.1733,167.603 37,122.5C 83.8479,49.8411 150.348,9.17438 236.5,0.5 Z"/></g>
<g><path style="opacity:1" fill="#8c8c8c" d="M 322.5,8.5 C 325.152,8.40953 327.485,9.07619 329.5,10.5C 326.848,10.5905 324.515,9.92381 322.5,8.5 Z"/></g>
<g><path style="opacity:1" fill="#6f6f6f" d="M 392.5,39.5 C 394.027,39.427 395.027,40.0937 395.5,41.5C 393.973,41.573 392.973,40.9063 392.5,39.5 Z"/></g>
<g><path style="opacity:1" fill="#616161" d="M 395.5,41.5 C 397.027,41.427 398.027,42.0937 398.5,43.5C 396.973,43.573 395.973,42.9063 395.5,41.5 Z"/></g>
<g><path style="opacity:1" fill="#6d6d6d" d="M 398.5,43.5 C 400.027,43.427 401.027,44.0937 401.5,45.5C 399.973,45.573 398.973,44.9063 398.5,43.5 Z"/></g>
<g><path style="opacity:1" fill="#696969" d="M 414.5,55.5 C 416.027,55.427 417.027,56.0937 417.5,57.5C 415.973,57.573 414.973,56.9063 414.5,55.5 Z"/></g>
<g><path style="opacity:1" fill="#5b5b5b" d="M 421.5,61.5 C 423.027,61.427 424.027,62.0937 424.5,63.5C 422.973,63.573 421.973,62.9063 421.5,61.5 Z"/></g>
<g><path style="opacity:1" fill="#525252" d="M 433.5,72.5 C 435.833,72.8333 437.167,74.1667 437.5,76.5C 435.833,75.5 434.5,74.1667 433.5,72.5 Z"/></g>
<g><path style="opacity:1" fill="#f8f8f8" d="M 159.5,228.5 C 159.738,230.404 160.738,231.738 162.5,232.5C 170.346,242.583 172.513,253.916 169,266.5C 160.567,288.419 144.734,297.419 121.5,293.5C 120.365,291.787 118.698,291.12 116.5,291.5C 113.669,290.921 111.336,289.588 109.5,287.5C 109.027,286.094 108.027,285.427 106.5,285.5C 94.5828,275.255 90.0828,262.255 93,246.5C 94.1431,241.547 96.3097,237.214 99.5,233.5C 100.906,233.027 101.573,232.027 101.5,230.5C 102.167,229.167 103.167,228.167 104.5,227.5C 106.749,226.92 108.415,225.587 109.5,223.5C 111.336,221.412 113.669,220.079 116.5,219.5C 119.152,219.59 121.485,218.924 123.5,217.5C 137.474,214.661 149.474,218.328 159.5,228.5 Z"/></g>
<g><path style="opacity:1" fill="#f7f7f7" d="M 247.5,216.5 C 271.328,214.489 286.828,224.822 294,247.5C 296.481,271.385 286.315,286.885 263.5,294C 239.577,296.466 224.077,286.3 217,263.5C 214.638,239.529 224.805,223.862 247.5,216.5 Z"/></g>
<g><path style="opacity:1" fill="#f8f8f8" d="M 397.5,220.5 C 397.821,222.048 398.821,222.715 400.5,222.5C 404.12,224.453 407.12,227.119 409.5,230.5C 409.427,232.027 410.094,233.027 411.5,233.5C 416.612,239.84 418.945,247.173 418.5,255.5C 416.51,279.49 403.51,292.49 379.5,294.5C 352.026,291.519 339.192,276.186 341,248.5C 341.893,242.279 344.393,236.946 348.5,232.5C 349.906,232.027 350.573,231.027 350.5,229.5C 350.833,228.5 351.5,227.833 352.5,227.5C 354.404,227.262 355.738,226.262 356.5,224.5C 360.611,220.444 365.611,217.944 371.5,217C 380.608,215.604 389.274,216.771 397.5,220.5 Z"/></g>
<g><path style="opacity:1" fill="#8d8d8d" d="M 123.5,217.5 C 121.485,218.924 119.152,219.59 116.5,219.5C 118.515,218.076 120.848,217.41 123.5,217.5 Z"/></g>
<g><path style="opacity:1" fill="#6d6d6d" d="M 397.5,220.5 C 398.71,220.932 399.71,221.599 400.5,222.5C 398.821,222.715 397.821,222.048 397.5,220.5 Z"/></g>
<g><path style="opacity:1" fill="#777777" d="M 356.5,224.5 C 355.738,226.262 354.404,227.262 352.5,227.5C 353.262,225.738 354.596,224.738 356.5,224.5 Z"/></g>
<g><path style="opacity:1" fill="#969696" d="M 109.5,223.5 C 108.415,225.587 106.749,226.92 104.5,227.5C 105.585,225.413 107.251,224.08 109.5,223.5 Z"/></g>
<g><path style="opacity:1" fill="#676767" d="M 159.5,228.5 C 161.262,229.262 162.262,230.596 162.5,232.5C 160.738,231.738 159.738,230.404 159.5,228.5 Z"/></g>
<g><path style="opacity:1" fill="#5d5d5d" d="M 350.5,229.5 C 350.573,231.027 349.906,232.027 348.5,232.5C 348.427,230.973 349.094,229.973 350.5,229.5 Z"/></g>
<g><path style="opacity:1" fill="#686868" d="M 101.5,230.5 C 101.573,232.027 100.906,233.027 99.5,233.5C 99.427,231.973 100.094,230.973 101.5,230.5 Z"/></g>
<g><path style="opacity:1" fill="#686868" d="M 409.5,230.5 C 410.906,230.973 411.573,231.973 411.5,233.5C 410.094,233.027 409.427,232.027 409.5,230.5 Z"/></g>
<g><path style="opacity:1" fill="#fbfbfb" d="M -0.5,269.5 C -0.166667,269.5 0.166667,269.5 0.5,269.5C 1.61532,287.408 4.28199,305.075 8.5,322.5C 8.40953,325.152 9.07619,327.485 10.5,329.5C 18.0433,351.457 27.7099,372.457 39.5,392.5C 39.427,394.027 40.0937,395.027 41.5,395.5C 41.427,397.027 42.0937,398.027 43.5,398.5C 43.427,400.027 44.0937,401.027 45.5,401.5C 49.0642,405.614 52.3975,409.948 55.5,414.5C 55.427,416.027 56.0937,417.027 57.5,417.5C 59.1667,418.5 60.5,419.833 61.5,421.5C 61.427,423.027 62.0937,424.027 63.5,424.5C 66.8333,427.167 69.8333,430.167 72.5,433.5C 72.8333,435.833 74.1667,437.167 76.5,437.5C 130.153,488.779 194.487,513.113 269.5,510.5C 269.5,510.833 269.5,511.167 269.5,511.5C 179.5,511.5 89.5,511.5 -0.5,511.5C -0.5,430.833 -0.5,350.167 -0.5,269.5 Z"/></g>
<g><path style="opacity:1" fill="#fcfcfc" d="M 510.5,269.5 C 510.833,269.5 511.167,269.5 511.5,269.5C 511.5,350.167 511.5,430.833 511.5,511.5C 430.833,511.5 350.167,511.5 269.5,511.5C 269.5,511.167 269.5,510.833 269.5,510.5C 287.408,509.385 305.075,506.718 322.5,502.5C 325.152,502.59 327.485,501.924 329.5,500.5C 352.755,492.858 374.755,482.525 395.5,469.5C 397.027,469.573 398.027,468.906 398.5,467.5C 404.647,462.592 410.98,457.925 417.5,453.5C 420.427,452.243 422.761,450.243 424.5,447.5C 424.5,446.833 424.833,446.5 425.5,446.5C 430.833,443.167 435.167,438.833 438.5,433.5C 441.167,430.167 444.167,427.167 447.5,424.5C 448.906,424.027 449.573,423.027 449.5,421.5C 450.5,419.833 451.833,418.5 453.5,417.5C 454.906,417.027 455.573,416.027 455.5,414.5C 458.603,409.948 461.936,405.614 465.5,401.5C 466.906,401.027 467.573,400.027 467.5,398.5C 468.906,398.027 469.573,397.027 469.5,395.5C 470.906,395.027 471.573,394.027 471.5,392.5C 483.29,372.457 492.957,351.457 500.5,329.5C 501.924,327.485 502.59,325.152 502.5,322.5C 506.718,305.075 509.385,287.408 510.5,269.5 Z"/></g>
<g><path style="opacity:1" fill="#656565" d="M 106.5,285.5 C 108.027,285.427 109.027,286.094 109.5,287.5C 107.973,287.573 106.973,286.906 106.5,285.5 Z"/></g>
<g><path style="opacity:1" fill="#757575" d="M 116.5,291.5 C 118.698,291.12 120.365,291.787 121.5,293.5C 119.597,293.204 117.93,292.537 116.5,291.5 Z"/></g>
<g><path style="opacity:1" fill="#8c8c8c" d="M 8.5,322.5 C 9.92381,324.515 10.5905,326.848 10.5,329.5C 9.07619,327.485 8.40953,325.152 8.5,322.5 Z"/></g>
<g><path style="opacity:1" fill="#8c8c8c" d="M 502.5,322.5 C 502.59,325.152 501.924,327.485 500.5,329.5C 500.41,326.848 501.076,324.515 502.5,322.5 Z"/></g>
<g><path style="opacity:1" fill="#6f6f6f" d="M 39.5,392.5 C 40.9063,392.973 41.573,393.973 41.5,395.5C 40.0937,395.027 39.427,394.027 39.5,392.5 Z"/></g>
<g><path style="opacity:1" fill="#6f6f6f" d="M 471.5,392.5 C 471.573,394.027 470.906,395.027 469.5,395.5C 469.427,393.973 470.094,392.973 471.5,392.5 Z"/></g>
<g><path style="opacity:1" fill="#616161" d="M 41.5,395.5 C 42.9063,395.973 43.573,396.973 43.5,398.5C 42.0937,398.027 41.427,397.027 41.5,395.5 Z"/></g>
<g><path style="opacity:1" fill="#616161" d="M 469.5,395.5 C 469.573,397.027 468.906,398.027 467.5,398.5C 467.427,396.973 468.094,395.973 469.5,395.5 Z"/></g>
<g><path style="opacity:1" fill="#6d6d6d" d="M 43.5,398.5 C 44.9063,398.973 45.573,399.973 45.5,401.5C 44.0937,401.027 43.427,400.027 43.5,398.5 Z"/></g>
<g><path style="opacity:1" fill="#6d6d6d" d="M 467.5,398.5 C 467.573,400.027 466.906,401.027 465.5,401.5C 465.427,399.973 466.094,398.973 467.5,398.5 Z"/></g>
<g><path style="opacity:1" fill="#696969" d="M 55.5,414.5 C 56.9063,414.973 57.573,415.973 57.5,417.5C 56.0937,417.027 55.427,416.027 55.5,414.5 Z"/></g>
<g><path style="opacity:1" fill="#696969" d="M 455.5,414.5 C 455.573,416.027 454.906,417.027 453.5,417.5C 453.427,415.973 454.094,414.973 455.5,414.5 Z"/></g>
<g><path style="opacity:1" fill="#5b5b5b" d="M 61.5,421.5 C 62.9063,421.973 63.573,422.973 63.5,424.5C 62.0937,424.027 61.427,423.027 61.5,421.5 Z"/></g>
<g><path style="opacity:1" fill="#5b5b5b" d="M 449.5,421.5 C 449.573,423.027 448.906,424.027 447.5,424.5C 447.427,422.973 448.094,421.973 449.5,421.5 Z"/></g>
<g><path style="opacity:1" fill="#525252" d="M 72.5,433.5 C 74.1667,434.5 75.5,435.833 76.5,437.5C 74.1667,437.167 72.8333,435.833 72.5,433.5 Z"/></g>
<g><path style="opacity:1" fill="#858585" d="M 438.5,433.5 C 435.167,438.833 430.833,443.167 425.5,446.5C 429.5,441.833 433.833,437.5 438.5,433.5 Z"/></g>
<g><path style="opacity:1" fill="#8e8e8e" d="M 424.5,447.5 C 422.761,450.243 420.427,452.243 417.5,453.5C 419.239,450.757 421.573,448.757 424.5,447.5 Z"/></g>
<g><path style="opacity:1" fill="#787878" d="M 398.5,467.5 C 398.027,468.906 397.027,469.573 395.5,469.5C 395.973,468.094 396.973,467.427 398.5,467.5 Z"/></g>
<g><path style="opacity:1" fill="#989898" d="M 329.5,500.5 C 327.485,501.924 325.152,502.59 322.5,502.5C 324.515,501.076 326.848,500.41 329.5,500.5 Z"/></g>
</svg>
