<svg width="37" height="37" viewBox="0 0 37 37" fill="none" xmlns="http://www.w3.org/2000/svg">
<path fill-rule="evenodd" clip-rule="evenodd" d="M15.2353 2.17647C15.2353 0.974439 16.2097 0 17.4118 0H19.5882C20.7903 0 21.7647 0.974441 21.7647 2.17647V8.51772C21.7647 8.92617 22.0333 9.28414 22.4144 9.43111C22.7784 9.57149 23.1935 9.49889 23.4694 9.22299L27.8887 4.8037C28.7386 3.95374 30.1167 3.95374 30.9666 4.8037L32.5056 6.3427C33.3556 7.19266 33.3556 8.57073 32.5056 9.42069L28.3815 13.5449C28.0817 13.8446 28.0263 14.3063 28.2176 14.6846C28.384 15.0139 28.7153 15.2353 29.0843 15.2353H34.8235C36.0256 15.2353 37 16.2097 37 17.4118V19.5882C37 20.7903 36.0256 21.7647 34.8235 21.7647H30.3809C29.6732 21.7647 29.0725 22.2734 28.8543 22.9466C28.6665 23.526 28.784 24.1671 29.2148 24.5978L32.5056 27.8887C33.3556 28.7386 33.3556 30.1167 32.5056 30.9667L30.9667 32.5057C30.1167 33.3556 28.7386 33.3556 27.8887 32.5057L25.2236 29.8405C24.6396 29.2566 23.7419 29.1631 22.9897 29.5042C22.2821 29.8251 21.7647 30.5011 21.7647 31.2781V34.8235C21.7647 36.0256 20.7903 37 19.5882 37H17.4118C16.2097 37 15.2353 36.0256 15.2353 34.8235V31.183C15.2353 30.4626 14.7565 29.8351 14.0978 29.5434C13.4093 29.2385 12.5936 29.3327 12.0611 29.8652L9.42069 32.5056C8.57073 33.3556 7.19266 33.3556 6.3427 32.5056L4.8037 30.9667C3.95373 30.1167 3.95373 28.7386 4.8037 27.8887L7.79502 24.8973C8.27522 24.4171 8.39809 23.6997 8.18183 23.056C7.93535 22.3223 7.2791 21.7647 6.50512 21.7647H2.17647C0.974439 21.7647 0 20.7903 0 19.5882V17.4118C0 16.2097 0.974438 15.2353 2.17647 15.2353H7.82086C8.24745 15.2353 8.62998 14.9788 8.8258 14.5998C9.05455 14.157 8.99542 13.6124 8.64304 13.26L4.8037 9.4207C3.95374 8.57073 3.95374 7.19267 4.8037 6.3427L6.3427 4.80371C7.19266 3.95374 8.57073 3.95374 9.42069 4.80371L13.8301 9.2131C14.0557 9.43875 14.394 9.50205 14.6929 9.3904C15.0119 9.27126 15.2353 8.97239 15.2353 8.63187V2.17647Z" fill="white"/>
<path d="M26.1176 19.5882C26.1176 23.7953 22.7071 27.2059 18.5 27.2059C14.2929 27.2059 10.8824 23.7953 10.8824 19.5882C10.8824 15.3811 14.2929 11.9706 18.5 11.9706C22.7071 11.9706 26.1176 15.3811 26.1176 19.5882Z" fill="#3498DB"/>
</svg>
