<?xml version="1.0" encoding="UTF-8"?>
<!DOCTYPE svg PUBLIC "-//W3C//DTD SVG 1.1//EN" "http://www.w3.org/Graphics/SVG/1.1/DTD/svg11.dtd">
<svg xmlns="http://www.w3.org/2000/svg" version="1.1" width="225px" height="225px" style="shape-rendering:geometricPrecision; text-rendering:geometricPrecision; image-rendering:optimizeQuality; fill-rule:evenodd; clip-rule:evenodd" xmlns:xlink="http://www.w3.org/1999/xlink">
<g><path style="opacity:1" fill="#fcfcfc" d="M -0.5,-0.5 C 74.5,-0.5 149.5,-0.5 224.5,-0.5C 224.5,74.5 224.5,149.5 224.5,224.5C 149.5,224.5 74.5,224.5 -0.5,224.5C -0.5,149.5 -0.5,74.5 -0.5,-0.5 Z"/></g>
<g><path style="opacity:1" fill="#040404" d="M 97.5,1.5 C 152.39,-1.81938 191.556,21.1806 215,70.5C 229.115,110.909 223.449,148.242 198,182.5C 165.644,217.802 126.144,229.635 79.5,218C 35.4186,202.026 9.58529,170.86 2,124.5C -1.10978,75.8808 18.0569,39.0475 59.5,14C 71.7208,8.09255 84.3874,3.92588 97.5,1.5 Z"/></g>
<g><path style="opacity:1" fill="#fdfdfd" d="M 98.5,12.5 C 139.639,9.35542 172.139,24.3554 196,57.5C 216.298,92.9448 216.632,128.611 197,164.5C 169.211,203.768 131.711,218.268 84.5,208C 44.5878,194.422 20.7545,166.922 13,125.5C 9.50939,75.6388 30.3427,40.1388 75.5,19C 83.1602,16.3389 90.8269,14.1723 98.5,12.5 Z"/></g>
<g><path style="opacity:1" fill="#060606" d="M 56.5,52.5 C 58.6547,52.372 60.6547,52.872 62.5,54C 79.0139,70.6807 95.6805,87.1807 112.5,103.5C 129.653,86.8473 146.653,70.014 163.5,53C 169.313,52.8292 171.48,55.6625 170,61.5C 153.319,78.0139 136.819,94.6805 120.5,111.5C 136.819,128.319 153.319,144.986 170,161.5C 172.045,164.719 171.545,167.552 168.5,170C 166.029,170.706 163.695,170.373 161.5,169C 145,152.5 128.5,136 112,119.5C 95.1667,136.333 78.3333,153.167 61.5,170C 55.3333,171.167 52.8333,168.667 54,162.5C 70.8333,145.667 87.6667,128.833 104.5,112C 87.6667,95.1667 70.8333,78.3333 54,61.5C 52.9271,57.9003 53.7605,54.9003 56.5,52.5 Z"/></g>
</svg>
