<svg width="39" height="41" viewBox="0 0 39 41" fill="none" xmlns="http://www.w3.org/2000/svg">
    <path d="M1.25862 1.85367C2.22801 0.710516 3.7141 0.0146863 5.22305 0.00113115H30.697C31.3554 -0.012424 32.0139 0.096017 32.6312 0.317417C33.852 0.751182 34.8946 1.65034 35.4982 2.78445C35.9143 3.54806 36.12 4.41558 36.12 5.27859V23.2165C35.2695 22.7737 34.4556 22.2677 33.5731 21.8927C32.3248 21.3685 30.9713 21.0839 29.6178 21.0613C28.0631 21.0342 26.5039 21.3459 25.0864 21.974C23.6506 22.6111 22.3611 23.569 21.3414 24.7528C20.3995 25.8417 19.6862 27.1249 19.2655 28.4985C18.5201 30.8933 18.6848 33.5501 19.7273 35.8364C20.0977 36.6452 20.5641 37.4088 21.1265 38.1046C21.6158 38.701 22.1096 39.2929 22.5989 39.8939H5.40596C4.84353 39.9029 4.27653 39.8261 3.73696 39.6634C2.5801 39.3155 1.55584 38.5564 0.888239 37.5624C0.339528 36.7581 0.0285922 35.7957 0.00115667 34.8243V5.31926C-0.0262789 4.05863 0.435553 2.80704 1.25862 1.85367ZM9.3201 7.03624C8.84912 7.13565 8.48331 7.58297 8.49703 8.06191C8.47874 8.5996 8.94057 9.09662 9.48471 9.1147H26.6273C26.9109 9.11018 27.1852 8.96559 27.3727 8.75774C27.6653 8.43242 27.7156 7.92184 27.4961 7.54682C27.3132 7.21698 26.9383 7.00461 26.5588 7.00913H9.6036C9.50757 7.00913 9.41155 7.01817 9.3201 7.03624ZM9.27894 14.3334C9.05489 14.3922 8.85369 14.5277 8.71651 14.7084C8.42387 15.0744 8.42844 15.6392 8.72566 16.0052C8.93143 16.2673 9.2698 16.4164 9.6036 16.4074H26.5588C26.8468 16.4074 27.1303 16.2944 27.3315 16.0911C27.6608 15.7703 27.7293 15.2326 27.5053 14.8395C27.3361 14.5277 26.9932 14.3108 26.6319 14.3018H9.48928C9.41612 14.3018 9.34296 14.3108 9.27894 14.3334ZM9.38411 21.5854C8.92228 21.6216 8.52904 22.0147 8.5016 22.471C8.49703 22.6789 8.48331 22.8957 8.57019 23.09C8.71651 23.4515 9.09604 23.7 9.48928 23.6955H16.0418C16.4808 23.6955 16.8969 23.3657 16.9838 22.9364C17.0981 22.4258 16.8009 21.8701 16.3162 21.6758C16.0647 21.5583 15.7812 21.5899 15.5114 21.5899C13.4674 21.5809 11.4235 21.5809 9.38411 21.5854ZM9.27894 28.9007C8.99544 28.9775 8.74852 29.1763 8.61592 29.4338C8.4513 29.7411 8.46045 30.1342 8.63421 30.4369C8.81254 30.7532 9.16006 30.9656 9.52586 30.9701H13.8332C14.1167 30.9701 14.4002 30.8481 14.5923 30.6402C14.9124 30.3194 14.9764 29.7863 14.7478 29.3977C14.5694 29.0769 14.2036 28.86 13.8332 28.8645H9.80022C9.62189 28.8645 9.44356 28.851 9.27894 28.9007Z" fill="#43A2E3"/>
    <path d="M29.186 22.1094C31.358 22.0462 33.5437 22.7465 35.263 24.0613C36.4336 24.947 37.3892 26.1037 38.034 27.414C38.7701 28.896 39.0902 30.5723 38.9759 32.217C38.8799 33.6448 38.4455 35.05 37.7139 36.2881C36.9777 37.5442 35.9443 38.6286 34.7234 39.4283C33.5894 40.1739 32.2862 40.6754 30.9373 40.8833C29.154 41.1634 27.2929 40.9375 25.6377 40.2236C24.3665 39.6814 23.2188 38.859 22.2997 37.8379C21.1931 36.6134 20.4158 35.0997 20.0774 33.4912C19.7527 31.9459 19.8168 30.3193 20.2832 28.8102C20.6535 27.5947 21.28 26.4561 22.1031 25.4801C23.013 24.4093 24.1607 23.5372 25.4456 22.9543C26.6162 22.4347 27.9011 22.1456 29.186 22.1094ZM33.2099 28.1188C31.7787 29.6777 30.3474 31.232 28.9208 32.7954C27.8005 31.8013 26.6894 30.7982 25.5691 29.7997C25.377 29.637 25.121 29.5421 24.8695 29.5512C24.4808 29.5467 24.1013 29.7816 23.9321 30.125C23.7172 30.5317 23.8132 31.0739 24.1653 31.3766C25.4685 32.5423 26.7717 33.7126 28.0749 34.8783C28.2166 35.0003 28.3492 35.1449 28.5275 35.2263C28.8339 35.3708 29.218 35.3618 29.5107 35.1901C29.7027 35.0907 29.8353 34.9145 29.9816 34.7563L34.6182 29.7003C34.7325 29.5738 34.8652 29.4518 34.9337 29.2891C35.1304 28.896 35.0435 28.3854 34.7234 28.0872C34.3347 27.6806 33.594 27.6941 33.2099 28.1188Z" fill="#43A2E3"/>
</svg>
