<?xml version="1.0" encoding="UTF-8"?>
<!DOCTYPE svg PUBLIC "-//W3C//DTD SVG 1.1//EN" "http://www.w3.org/Graphics/SVG/1.1/DTD/svg11.dtd">
<svg xmlns="http://www.w3.org/2000/svg" version="1.1" width="512px" height="512px" style="shape-rendering:geometricPrecision; text-rendering:geometricPrecision; image-rendering:optimizeQuality; fill-rule:evenodd; clip-rule:evenodd" xmlns:xlink="http://www.w3.org/1999/xlink">
<g><path style="opacity:1" fill="#fefefe" d="M -0.5,-0.5 C 78.5,-0.5 157.5,-0.5 236.5,-0.5C 141.425,10.1068 71.2583,57.4401 26,141.5C 11.3725,171.691 2.53921,203.358 -0.5,236.5C -0.5,157.5 -0.5,78.5 -0.5,-0.5 Z"/></g>
<g><path style="opacity:1" fill="#fefefe" d="M 269.5,-0.5 C 350.167,-0.5 430.833,-0.5 511.5,-0.5C 511.5,78.5 511.5,157.5 511.5,236.5C 502.643,151.929 462.976,86.096 392.5,39C 354.691,15.6741 313.691,2.5074 269.5,-0.5 Z"/></g>
<g><path style="opacity:1" fill="#247c98" d="M 236.5,-0.5 C 247.5,-0.5 258.5,-0.5 269.5,-0.5C 313.691,2.5074 354.691,15.6741 392.5,39C 462.976,86.096 502.643,151.929 511.5,236.5C 511.5,247.5 511.5,258.5 511.5,269.5C 502.359,367.64 454.359,439.806 367.5,486C 336.25,500.478 303.583,508.978 269.5,511.5C 258.5,511.5 247.5,511.5 236.5,511.5C 151.929,502.643 86.096,462.976 39,392.5C 15.6741,354.691 2.5074,313.691 -0.5,269.5C -0.5,258.5 -0.5,247.5 -0.5,236.5C 2.53921,203.358 11.3725,171.691 26,141.5C 71.2583,57.4401 141.425,10.1068 236.5,-0.5 Z"/></g>
<g><path style="opacity:1" fill="#fefefe" d="M 122.5,217.5 C 145.992,214.65 161.492,224.317 169,246.5C 172.338,270.009 162.838,285.509 140.5,293C 111.421,295.756 95.4211,282.589 92.5,253.5C 94.9546,235.058 104.955,223.058 122.5,217.5 Z"/></g>
<g><path style="opacity:1" fill="#fefefe" d="M 246.5,217.5 C 270.005,214.655 285.505,224.322 293,246.5C 296.338,270.009 286.838,285.509 264.5,293C 241.003,296.343 225.503,286.843 218,264.5C 214.785,240.904 224.285,225.237 246.5,217.5 Z"/></g>
<g><path style="opacity:1" fill="#fefefe" d="M 370.5,217.5 C 397.493,214.985 413.493,226.985 418.5,253.5C 415.588,282.579 399.588,295.746 370.5,293C 348.162,285.509 338.662,270.009 342,246.5C 346.35,231.651 355.85,221.985 370.5,217.5 Z"/></g>
<g><path style="opacity:1" fill="#fefefe" d="M -0.5,269.5 C 2.5074,313.691 15.6741,354.691 39,392.5C 86.096,462.976 151.929,502.643 236.5,511.5C 157.5,511.5 78.5,511.5 -0.5,511.5C -0.5,430.833 -0.5,350.167 -0.5,269.5 Z"/></g>
<g><path style="opacity:1" fill="#fefefe" d="M 511.5,269.5 C 511.5,350.167 511.5,430.833 511.5,511.5C 430.833,511.5 350.167,511.5 269.5,511.5C 303.583,508.978 336.25,500.478 367.5,486C 454.359,439.806 502.359,367.64 511.5,269.5 Z"/></g>
</svg>
