<?xml version="1.0" encoding="UTF-8"?>
<!DOCTYPE svg PUBLIC "-//W3C//DTD SVG 1.1//EN" "http://www.w3.org/Graphics/SVG/1.1/DTD/svg11.dtd">
<svg xmlns="http://www.w3.org/2000/svg" version="1.1" width="512px" height="512px" style="shape-rendering:geometricPrecision; text-rendering:geometricPrecision; image-rendering:optimizeQuality; fill-rule:evenodd; clip-rule:evenodd" xmlns:xlink="http://www.w3.org/1999/xlink">
<g><path style="opacity:1" fill="#fdfdfd" d="M -0.5,-0.5 C 78.5,-0.5 157.5,-0.5 236.5,-0.5C 136.904,11.2445 65.0707,62.2445 21,152.5C 9.68863,179.598 2.52197,207.598 -0.5,236.5C -0.5,157.5 -0.5,78.5 -0.5,-0.5 Z"/></g>
<g><path style="opacity:1" fill="#fdfdfd" d="M 269.5,-0.5 C 350.167,-0.5 430.833,-0.5 511.5,-0.5C 511.5,78.5 511.5,157.5 511.5,236.5C 505.562,173.987 480.895,120.654 437.5,76.5C 437.167,74.1667 435.833,72.8333 433.5,72.5C 430.167,69.8333 427.167,66.8333 424.5,63.5C 424.027,62.0937 423.027,61.427 421.5,61.5C 419.833,60.5 418.5,59.1667 417.5,57.5C 417.027,56.0937 416.027,55.427 414.5,55.5C 410.376,51.8633 406.043,48.53 401.5,45.5C 401.027,44.0937 400.027,43.427 398.5,43.5C 398.027,42.0937 397.027,41.427 395.5,41.5C 395.027,40.0937 394.027,39.427 392.5,39.5C 381.399,33.1123 370.065,26.9456 358.5,21C 348.908,17.2272 339.241,13.7272 329.5,10.5C 327.485,9.07619 325.152,8.40953 322.5,8.5C 304.91,4.40365 287.244,1.40365 269.5,-0.5 Z"/></g>
<g><path style="opacity:1" fill="#c1a4fe" d="M 236.5,-0.5 C 247.5,-0.5 258.5,-0.5 269.5,-0.5C 287.244,1.40365 304.91,4.40365 322.5,8.5C 324.515,9.92381 326.848,10.5905 329.5,10.5C 339.241,13.7272 348.908,17.2272 358.5,21C 370.065,26.9456 381.399,33.1123 392.5,39.5C 392.973,40.9063 393.973,41.573 395.5,41.5C 395.973,42.9063 396.973,43.573 398.5,43.5C 398.973,44.9063 399.973,45.573 401.5,45.5C 406.043,48.53 410.376,51.8633 414.5,55.5C 414.973,56.9063 415.973,57.573 417.5,57.5C 418.5,59.1667 419.833,60.5 421.5,61.5C 421.973,62.9063 422.973,63.573 424.5,63.5C 427.167,66.8333 430.167,69.8333 433.5,72.5C 434.5,74.1667 435.833,75.5 437.5,76.5C 480.895,120.654 505.562,173.987 511.5,236.5C 511.5,247.5 511.5,258.5 511.5,269.5C 509.596,287.244 506.596,304.91 502.5,322.5C 501.076,324.515 500.41,326.848 500.5,329.5C 497.273,339.241 493.773,348.908 490,358.5C 484.054,370.065 477.888,381.399 471.5,392.5C 470.094,392.973 469.427,393.973 469.5,395.5C 468.094,395.973 467.427,396.973 467.5,398.5C 466.094,398.973 465.427,399.973 465.5,401.5C 462.47,406.043 459.137,410.376 455.5,414.5C 454.094,414.973 453.427,415.973 453.5,417.5C 451.833,418.5 450.5,419.833 449.5,421.5C 448.094,421.973 447.427,422.973 447.5,424.5C 444.167,427.167 441.167,430.167 438.5,433.5C 433.833,437.5 429.5,441.833 425.5,446.5C 424.833,446.5 424.5,446.833 424.5,447.5C 421.573,448.757 419.239,450.757 417.5,453.5C 410.98,457.925 404.647,462.592 398.5,467.5C 396.973,467.427 395.973,468.094 395.5,469.5C 374.661,482.766 352.661,493.1 329.5,500.5C 326.848,500.41 324.515,501.076 322.5,502.5C 304.91,506.596 287.244,509.596 269.5,511.5C 258.5,511.5 247.5,511.5 236.5,511.5C 173.987,505.562 120.654,480.895 76.5,437.5C 75.5,435.833 74.1667,434.5 72.5,433.5C 69.8333,430.167 66.8333,427.167 63.5,424.5C 63.573,422.973 62.9063,421.973 61.5,421.5C 60.5,419.833 59.1667,418.5 57.5,417.5C 57.573,415.973 56.9063,414.973 55.5,414.5C 51.8633,410.376 48.53,406.043 45.5,401.5C 45.573,399.973 44.9063,398.973 43.5,398.5C 43.573,396.973 42.9063,395.973 41.5,395.5C 41.573,393.973 40.9063,392.973 39.5,392.5C 33.1123,381.399 26.9456,370.065 21,358.5C 17.2272,348.908 13.7272,339.241 10.5,329.5C 10.5905,326.848 9.92381,324.515 8.5,322.5C 4.40365,304.91 1.40365,287.244 -0.5,269.5C -0.5,258.5 -0.5,247.5 -0.5,236.5C 2.52197,207.598 9.68863,179.598 21,152.5C 65.0707,62.2445 136.904,11.2445 236.5,-0.5 Z"/></g>
<g><path style="opacity:1" fill="#8c8c8c" d="M 322.5,8.5 C 325.152,8.40953 327.485,9.07619 329.5,10.5C 326.848,10.5905 324.515,9.92381 322.5,8.5 Z"/></g>
<g><path style="opacity:1" fill="#6f6f6f" d="M 392.5,39.5 C 394.027,39.427 395.027,40.0937 395.5,41.5C 393.973,41.573 392.973,40.9063 392.5,39.5 Z"/></g>
<g><path style="opacity:1" fill="#616161" d="M 395.5,41.5 C 397.027,41.427 398.027,42.0937 398.5,43.5C 396.973,43.573 395.973,42.9063 395.5,41.5 Z"/></g>
<g><path style="opacity:1" fill="#6d6d6d" d="M 398.5,43.5 C 400.027,43.427 401.027,44.0937 401.5,45.5C 399.973,45.573 398.973,44.9063 398.5,43.5 Z"/></g>
<g><path style="opacity:1" fill="#696969" d="M 414.5,55.5 C 416.027,55.427 417.027,56.0937 417.5,57.5C 415.973,57.573 414.973,56.9063 414.5,55.5 Z"/></g>
<g><path style="opacity:1" fill="#5b5b5b" d="M 421.5,61.5 C 423.027,61.427 424.027,62.0937 424.5,63.5C 422.973,63.573 421.973,62.9063 421.5,61.5 Z"/></g>
<g><path style="opacity:1" fill="#525252" d="M 433.5,72.5 C 435.833,72.8333 437.167,74.1667 437.5,76.5C 435.833,75.5 434.5,74.1667 433.5,72.5 Z"/></g>
<g><path style="opacity:1" fill="#fbfbfb" d="M 160.5,229.5 C 160.427,231.027 161.094,232.027 162.5,232.5C 175.271,252.681 172.605,270.847 154.5,287C 149.59,289.623 144.59,291.956 139.5,294C 133.449,294.746 127.449,294.579 121.5,293.5C 120.365,291.787 118.698,291.12 116.5,291.5C 114.289,289.896 111.956,288.563 109.5,287.5C 109.027,286.094 108.027,285.427 106.5,285.5C 95.4495,275.054 90.9495,262.054 93,246.5C 94.1476,241.538 96.3142,237.205 99.5,233.5C 100.906,233.027 101.573,232.027 101.5,230.5C 102.167,229.167 103.167,228.167 104.5,227.5C 106.749,226.92 108.415,225.587 109.5,223.5C 111.625,221.933 113.958,220.6 116.5,219.5C 119.152,219.59 121.485,218.924 123.5,217.5C 137.646,215.436 149.979,219.436 160.5,229.5 Z"/></g>
<g><path style="opacity:1" fill="#fafafa" d="M 284.5,229.5 C 284.427,231.027 285.094,232.027 286.5,232.5C 299.337,252.788 296.671,270.955 278.5,287C 273.818,290.082 268.818,292.415 263.5,294C 251.841,296.267 241.508,293.767 232.5,286.5C 232.027,285.094 231.027,284.427 229.5,284.5C 213.916,267.869 212.416,249.869 225,230.5C 242.015,213.988 260.515,212.154 280.5,225C 281.699,226.694 283.032,228.194 284.5,229.5 Z"/></g>
<g><path style="opacity:1" fill="#fafafa" d="M 409.5,230.5 C 409.427,232.027 410.094,233.027 411.5,233.5C 417.831,241.358 419.997,250.358 418,260.5C 412.124,285.022 396.624,296.188 371.5,294C 366.147,292.132 361.147,289.632 356.5,286.5C 356.027,285.094 355.027,284.427 353.5,284.5C 338.206,268.35 336.539,251.016 348.5,232.5C 349.906,232.027 350.573,231.027 350.5,229.5C 350.833,228.5 351.5,227.833 352.5,227.5C 354.404,227.262 355.738,226.262 356.5,224.5C 357.574,223.115 358.907,221.949 360.5,221C 372.841,215.041 385.174,215.041 397.5,221C 401.751,223.945 405.751,227.112 409.5,230.5 Z"/></g>
<g><path style="opacity:1" fill="#8d8d8d" d="M 123.5,217.5 C 121.485,218.924 119.152,219.59 116.5,219.5C 118.515,218.076 120.848,217.41 123.5,217.5 Z"/></g>
<g><path style="opacity:1" fill="#777777" d="M 356.5,224.5 C 355.738,226.262 354.404,227.262 352.5,227.5C 353.262,225.738 354.596,224.738 356.5,224.5 Z"/></g>
<g><path style="opacity:1" fill="#969696" d="M 109.5,223.5 C 108.415,225.587 106.749,226.92 104.5,227.5C 105.585,225.413 107.251,224.08 109.5,223.5 Z"/></g>
<g><path style="opacity:1" fill="#5d5d5d" d="M 160.5,229.5 C 161.906,229.973 162.573,230.973 162.5,232.5C 161.094,232.027 160.427,231.027 160.5,229.5 Z"/></g>
<g><path style="opacity:1" fill="#707070" d="M 284.5,229.5 C 285.906,229.973 286.573,230.973 286.5,232.5C 285.094,232.027 284.427,231.027 284.5,229.5 Z"/></g>
<g><path style="opacity:1" fill="#5d5d5d" d="M 350.5,229.5 C 350.573,231.027 349.906,232.027 348.5,232.5C 348.427,230.973 349.094,229.973 350.5,229.5 Z"/></g>
<g><path style="opacity:1" fill="#686868" d="M 101.5,230.5 C 101.573,232.027 100.906,233.027 99.5,233.5C 99.427,231.973 100.094,230.973 101.5,230.5 Z"/></g>
<g><path style="opacity:1" fill="#686868" d="M 409.5,230.5 C 410.906,230.973 411.573,231.973 411.5,233.5C 410.094,233.027 409.427,232.027 409.5,230.5 Z"/></g>
<g><path style="opacity:1" fill="#fdfdfd" d="M -0.5,269.5 C 1.40365,287.244 4.40365,304.91 8.5,322.5C 8.40953,325.152 9.07619,327.485 10.5,329.5C 13.7272,339.241 17.2272,348.908 21,358.5C 26.9456,370.065 33.1123,381.399 39.5,392.5C 39.427,394.027 40.0937,395.027 41.5,395.5C 41.427,397.027 42.0937,398.027 43.5,398.5C 43.427,400.027 44.0937,401.027 45.5,401.5C 48.53,406.043 51.8633,410.376 55.5,414.5C 55.427,416.027 56.0937,417.027 57.5,417.5C 59.1667,418.5 60.5,419.833 61.5,421.5C 61.427,423.027 62.0937,424.027 63.5,424.5C 66.8333,427.167 69.8333,430.167 72.5,433.5C 72.8333,435.833 74.1667,437.167 76.5,437.5C 120.654,480.895 173.987,505.562 236.5,511.5C 157.5,511.5 78.5,511.5 -0.5,511.5C -0.5,430.833 -0.5,350.167 -0.5,269.5 Z"/></g>
<g><path style="opacity:1" fill="#fcfcfc" d="M 511.5,269.5 C 511.5,350.167 511.5,430.833 511.5,511.5C 430.833,511.5 350.167,511.5 269.5,511.5C 287.244,509.596 304.91,506.596 322.5,502.5C 325.152,502.59 327.485,501.924 329.5,500.5C 352.661,493.1 374.661,482.766 395.5,469.5C 397.027,469.573 398.027,468.906 398.5,467.5C 404.647,462.592 410.98,457.925 417.5,453.5C 420.427,452.243 422.761,450.243 424.5,447.5C 424.5,446.833 424.833,446.5 425.5,446.5C 430.833,443.167 435.167,438.833 438.5,433.5C 441.167,430.167 444.167,427.167 447.5,424.5C 448.906,424.027 449.573,423.027 449.5,421.5C 450.5,419.833 451.833,418.5 453.5,417.5C 454.906,417.027 455.573,416.027 455.5,414.5C 459.137,410.376 462.47,406.043 465.5,401.5C 466.906,401.027 467.573,400.027 467.5,398.5C 468.906,398.027 469.573,397.027 469.5,395.5C 470.906,395.027 471.573,394.027 471.5,392.5C 477.888,381.399 484.054,370.065 490,358.5C 493.773,348.908 497.273,339.241 500.5,329.5C 501.924,327.485 502.59,325.152 502.5,322.5C 506.596,304.91 509.596,287.244 511.5,269.5 Z"/></g>
<g><path style="opacity:1" fill="#707070" d="M 229.5,284.5 C 231.027,284.427 232.027,285.094 232.5,286.5C 230.973,286.573 229.973,285.906 229.5,284.5 Z"/></g>
<g><path style="opacity:1" fill="#626262" d="M 353.5,284.5 C 355.027,284.427 356.027,285.094 356.5,286.5C 354.973,286.573 353.973,285.906 353.5,284.5 Z"/></g>
<g><path style="opacity:1" fill="#656565" d="M 106.5,285.5 C 108.027,285.427 109.027,286.094 109.5,287.5C 107.973,287.573 106.973,286.906 106.5,285.5 Z"/></g>
<g><path style="opacity:1" fill="#757575" d="M 116.5,291.5 C 118.698,291.12 120.365,291.787 121.5,293.5C 119.597,293.204 117.93,292.537 116.5,291.5 Z"/></g>
<g><path style="opacity:1" fill="#8c8c8c" d="M 8.5,322.5 C 9.92381,324.515 10.5905,326.848 10.5,329.5C 9.07619,327.485 8.40953,325.152 8.5,322.5 Z"/></g>
<g><path style="opacity:1" fill="#8c8c8c" d="M 502.5,322.5 C 502.59,325.152 501.924,327.485 500.5,329.5C 500.41,326.848 501.076,324.515 502.5,322.5 Z"/></g>
<g><path style="opacity:1" fill="#6f6f6f" d="M 39.5,392.5 C 40.9063,392.973 41.573,393.973 41.5,395.5C 40.0937,395.027 39.427,394.027 39.5,392.5 Z"/></g>
<g><path style="opacity:1" fill="#6f6f6f" d="M 471.5,392.5 C 471.573,394.027 470.906,395.027 469.5,395.5C 469.427,393.973 470.094,392.973 471.5,392.5 Z"/></g>
<g><path style="opacity:1" fill="#616161" d="M 41.5,395.5 C 42.9063,395.973 43.573,396.973 43.5,398.5C 42.0937,398.027 41.427,397.027 41.5,395.5 Z"/></g>
<g><path style="opacity:1" fill="#616161" d="M 469.5,395.5 C 469.573,397.027 468.906,398.027 467.5,398.5C 467.427,396.973 468.094,395.973 469.5,395.5 Z"/></g>
<g><path style="opacity:1" fill="#6d6d6d" d="M 43.5,398.5 C 44.9063,398.973 45.573,399.973 45.5,401.5C 44.0937,401.027 43.427,400.027 43.5,398.5 Z"/></g>
<g><path style="opacity:1" fill="#6d6d6d" d="M 467.5,398.5 C 467.573,400.027 466.906,401.027 465.5,401.5C 465.427,399.973 466.094,398.973 467.5,398.5 Z"/></g>
<g><path style="opacity:1" fill="#696969" d="M 55.5,414.5 C 56.9063,414.973 57.573,415.973 57.5,417.5C 56.0937,417.027 55.427,416.027 55.5,414.5 Z"/></g>
<g><path style="opacity:1" fill="#696969" d="M 455.5,414.5 C 455.573,416.027 454.906,417.027 453.5,417.5C 453.427,415.973 454.094,414.973 455.5,414.5 Z"/></g>
<g><path style="opacity:1" fill="#5b5b5b" d="M 61.5,421.5 C 62.9063,421.973 63.573,422.973 63.5,424.5C 62.0937,424.027 61.427,423.027 61.5,421.5 Z"/></g>
<g><path style="opacity:1" fill="#5b5b5b" d="M 449.5,421.5 C 449.573,423.027 448.906,424.027 447.5,424.5C 447.427,422.973 448.094,421.973 449.5,421.5 Z"/></g>
<g><path style="opacity:1" fill="#525252" d="M 72.5,433.5 C 74.1667,434.5 75.5,435.833 76.5,437.5C 74.1667,437.167 72.8333,435.833 72.5,433.5 Z"/></g>
<g><path style="opacity:1" fill="#858585" d="M 438.5,433.5 C 435.167,438.833 430.833,443.167 425.5,446.5C 429.5,441.833 433.833,437.5 438.5,433.5 Z"/></g>
<g><path style="opacity:1" fill="#8e8e8e" d="M 424.5,447.5 C 422.761,450.243 420.427,452.243 417.5,453.5C 419.239,450.757 421.573,448.757 424.5,447.5 Z"/></g>
<g><path style="opacity:1" fill="#787878" d="M 398.5,467.5 C 398.027,468.906 397.027,469.573 395.5,469.5C 395.973,468.094 396.973,467.427 398.5,467.5 Z"/></g>
<g><path style="opacity:1" fill="#989898" d="M 329.5,500.5 C 327.485,501.924 325.152,502.59 322.5,502.5C 324.515,501.076 326.848,500.41 329.5,500.5 Z"/></g>
</svg>
