<svg width="70" height="61" viewBox="0 0 70 61" fill="none" xmlns="http://www.w3.org/2000/svg">
<path d="M12.2839 51.11V51.99H14.3739V58H15.3139V51.99H17.4039V51.11H12.2839ZM18.1393 55.3C18.2493 54.51 18.8493 54.05 19.6193 54.05C20.3793 54.05 20.9293 54.51 21.0393 55.3H18.1393ZM21.9393 55.65C21.9393 54.17 20.9493 53.23 19.6193 53.23C18.2893 53.23 17.2293 54.17 17.2293 55.65C17.2293 57.13 18.2893 58.1 19.6193 58.1C20.5293 58.1 21.3693 57.69 21.7693 56.86C21.5193 56.75 21.2293 56.67 20.9893 56.56C20.7193 57.03 20.2093 57.28 19.6493 57.28C18.8493 57.28 18.2493 56.8 18.1393 56.01H21.9293C21.9393 55.9 21.9393 55.76 21.9393 55.65ZM22.6883 53.33L24.2083 55.44L22.3583 58H23.4283L24.7383 56.19L26.0383 58H27.1183L25.2683 55.44L26.7983 53.33H25.7083L24.7383 54.7L23.7783 53.33H22.6883ZM29.2583 53.33V51.57H28.3483V53.33H27.5083V54.1H28.3483V58H29.2583V54.1H30.2483V53.33H29.2583ZM33.4216 54.57C33.4216 56.53 34.9416 58.1 36.9016 58.1C38.8716 58.1 40.4016 56.53 40.4016 54.57C40.4016 52.62 38.8716 51.03 36.9016 51.03C34.9416 51.03 33.4216 52.62 33.4216 54.57ZM34.3516 54.57C34.3516 53.1 35.4616 51.93 36.9016 51.93C38.3516 51.93 39.4616 53.1 39.4616 54.57C39.4616 56.04 38.3516 57.2 36.9016 57.2C35.4616 57.2 34.3516 56.04 34.3516 54.57ZM42.5118 55.48C42.5118 54.49 43.1718 54.12 43.8318 54.12C44.4718 54.12 44.8618 54.57 44.8618 55.36V58H45.7718V55.3C45.7718 53.98 45.1418 53.23 43.9718 53.23C43.4618 53.23 42.7818 53.47 42.5118 54.03V53.33H41.6018V58H42.5118V55.48ZM47.2366 50.79V58H48.1466V50.79H47.2366ZM50.9282 60.27L53.8282 53.33H52.8582L51.4582 56.71L50.0582 53.33H49.0882L50.9582 57.86L49.9782 60.27H50.9282Z" fill="black"/>
<g filter="url(#filter0_d_1396_11266)">
<rect x="4" y="3.58984" width="58" height="40" rx="2" fill="white"/>
<rect x="4.26111" y="3.85095" width="57.4778" height="39.4778" rx="1.73889" stroke="#3F55DB" stroke-width="0.522222"/>
</g>
<path d="M8 18H52V20H8V18Z" fill="#3F55DB" fill-opacity="0.5"/>
<path d="M8 14H35V16H8V14Z" fill="#3F55DB" fill-opacity="0.5"/>
<path d="M8 38H35V40H8V38Z" fill="#3F55DB" fill-opacity="0.5"/>
<path d="M8 34H38V36H8V34Z" fill="#3F55DB" fill-opacity="0.5"/>
<path d="M8 30H44V32H8V30Z" fill="#3F55DB" fill-opacity="0.5"/>
<path d="M8 26H58V28H8V26Z" fill="#3F55DB" fill-opacity="0.5"/>
<path d="M8 22H38V24H8V22Z" fill="#3F55DB" fill-opacity="0.5"/>
<path d="M4.26111 5.61111C4.26111 4.31324 5.31324 3.26111 6.61111 3.26111H59.3889C60.6868 3.26111 61.7389 4.31324 61.7389 5.61111V9.73889H4.26111V5.61111Z" fill="white" stroke="#3F55DB" stroke-width="0.522222"/>
<ellipse cx="14.2083" cy="6.17645" rx="1.20833" ry="1.17645" fill="#3F55DB"/>
<ellipse cx="9.20833" cy="6.17645" rx="1.20833" ry="1.17645" fill="#3F55DB"/>
<ellipse cx="19.2083" cy="6.17645" rx="1.20833" ry="1.17645" fill="#3F55DB"/>
<defs>
<filter id="filter0_d_1396_11266" x="0.866667" y="0.45651" width="68.4444" height="50.4444" filterUnits="userSpaceOnUse" color-interpolation-filters="sRGB">
<feFlood flood-opacity="0" result="BackgroundImageFix"/>
<feColorMatrix in="SourceAlpha" type="matrix" values="0 0 0 0 0 0 0 0 0 0 0 0 0 0 0 0 0 0 127 0" result="hardAlpha"/>
<feOffset dx="2.08889" dy="2.08889"/>
<feGaussianBlur stdDeviation="2.61111"/>
<feComposite in2="hardAlpha" operator="out"/>
<feColorMatrix type="matrix" values="0 0 0 0 0.247059 0 0 0 0 0.333333 0 0 0 0 0.858824 0 0 0 0.25 0"/>
<feBlend mode="normal" in2="BackgroundImageFix" result="effect1_dropShadow_1396_11266"/>
<feBlend mode="normal" in="SourceGraphic" in2="effect1_dropShadow_1396_11266" result="shape"/>
</filter>
</defs>
</svg>
