<svg width="38" height="41" viewBox="0 0 38 41" fill="none" xmlns="http://www.w3.org/2000/svg">
    <path d="M18.989 41H18.4738C13.5454 40.8101 8.88046 38.7896 5.44249 35.3561C2.00452 31.9226 0.0562081 27.3382 0 22.55C0.00313765 18.3691 1.46882 14.3132 4.15689 11.0468C6.84497 7.78047 10.596 5.49733 14.7955 4.5715V2.05C14.7955 1.50631 15.018 0.98488 15.414 0.600431C15.81 0.215981 16.347 0 16.9071 0H21.1301C21.6901 0 22.2272 0.215981 22.6232 0.600431C23.0192 0.98488 23.2417 1.50631 23.2417 2.05V4.5715C26.0291 5.21158 28.6327 6.45163 30.8601 8.2L33.2081 5.8015C33.3063 5.70512 33.4232 5.6286 33.552 5.57638C33.6809 5.52416 33.8191 5.49727 33.9588 5.49727C34.0984 5.49727 34.2366 5.52416 34.3655 5.57638C34.4943 5.6286 34.6112 5.70512 34.7094 5.8015L36.2086 7.257C36.402 7.4486 36.5104 7.7062 36.5104 7.9745C36.5104 8.2428 36.402 8.5004 36.2086 8.692L33.8226 11.0085C36.0634 13.7217 37.4687 16.9945 37.8764 20.4496C38.2842 23.9047 37.6779 27.4013 36.1274 30.5363C34.5768 33.6713 32.1452 36.317 29.1129 38.1683C26.0806 40.0197 22.5711 41.0013 18.989 41ZM19.0249 8.2C16.1022 8.20284 13.246 9.04686 10.8172 10.6254C8.38848 12.2039 6.4963 14.4461 5.37985 17.0684C4.26339 19.6908 3.97279 22.5757 4.54478 25.3583C5.11676 28.141 6.52566 30.6966 8.59337 32.702C10.6611 34.7075 13.2948 36.0728 16.1616 36.6253C19.0283 37.1778 21.9995 36.8928 24.6995 35.8063C27.3994 34.7198 29.707 32.8805 31.3305 30.5209C32.9539 28.1614 33.8205 25.3875 33.8205 22.55C33.8137 18.7437 32.2523 15.0953 29.4786 12.4051C26.705 9.71499 22.9455 8.20271 19.0249 8.2ZM19.8273 24.6H18.2225C17.9425 24.6 17.674 24.492 17.476 24.2998C17.278 24.1076 17.1668 23.8468 17.1668 23.575V13.325C17.1668 13.1904 17.1941 13.0571 17.2471 12.9327C17.3002 12.8084 17.378 12.6954 17.476 12.6002C17.574 12.505 17.6904 12.4295 17.8185 12.378C17.9466 12.3265 18.0839 12.3 18.2225 12.3H19.8273C19.966 12.3 20.1032 12.3265 20.2313 12.378C20.3594 12.4295 20.4758 12.505 20.5739 12.6002C20.6719 12.6954 20.7497 12.8084 20.8027 12.9327C20.8558 13.0571 20.8831 13.1904 20.8831 13.325V23.575C20.8831 23.8468 20.7718 24.1076 20.5739 24.2998C20.3759 24.492 20.1073 24.6 19.8273 24.6Z" fill="#9EE8FF"/>
</svg>
