<?xml version="1.0" encoding="UTF-8"?>
<!DOCTYPE svg PUBLIC "-//W3C//DTD SVG 1.1//EN" "http://www.w3.org/Graphics/SVG/1.1/DTD/svg11.dtd">
<svg xmlns="http://www.w3.org/2000/svg" version="1.1" width="512px" height="512px" style="shape-rendering:geometricPrecision; text-rendering:geometricPrecision; image-rendering:optimizeQuality; fill-rule:evenodd; clip-rule:evenodd" xmlns:xlink="http://www.w3.org/1999/xlink">
<g><path style="opacity:1" fill="#fefefe" d="M -0.5,-0.5 C 78.5,-0.5 157.5,-0.5 236.5,-0.5C 149.734,8.94966 82.9011,50.283 36,123.5C 15.4672,158.595 3.30057,196.261 -0.5,236.5C -0.5,157.5 -0.5,78.5 -0.5,-0.5 Z"/></g>
<g><path style="opacity:1" fill="#fefefe" d="M 269.5,-0.5 C 350.167,-0.5 430.833,-0.5 511.5,-0.5C 511.5,78.5 511.5,157.5 511.5,236.5C 504.522,167.544 475.522,109.877 424.5,63.5C 424.027,62.0937 423.027,61.427 421.5,61.5C 420.674,59.7356 419.341,58.4023 417.5,57.5C 417.027,56.0937 416.027,55.427 414.5,55.5C 413.109,53.1097 411.109,51.4431 408.5,50.5C 408.027,49.0937 407.027,48.427 405.5,48.5C 404.564,47.0256 403.23,46.0256 401.5,45.5C 401.027,44.0937 400.027,43.427 398.5,43.5C 398.027,42.0937 397.027,41.427 395.5,41.5C 395.027,40.0937 394.027,39.427 392.5,39.5C 372.954,26.8968 351.954,17.2301 329.5,10.5C 327.485,9.07619 325.152,8.40953 322.5,8.5C 305.197,3.79225 287.53,0.792254 269.5,-0.5 Z"/></g>
<g><path style="opacity:1" fill="#4fcafa" d="M 236.5,-0.5 C 247.5,-0.5 258.5,-0.5 269.5,-0.5C 287.53,0.792254 305.197,3.79225 322.5,8.5C 324.515,9.92381 326.848,10.5905 329.5,10.5C 351.954,17.2301 372.954,26.8968 392.5,39.5C 392.973,40.9063 393.973,41.573 395.5,41.5C 395.973,42.9063 396.973,43.573 398.5,43.5C 398.973,44.9063 399.973,45.573 401.5,45.5C 403.23,46.0256 404.564,47.0256 405.5,48.5C 405.973,49.9063 406.973,50.573 408.5,50.5C 411.109,51.4431 413.109,53.1097 414.5,55.5C 414.973,56.9063 415.973,57.573 417.5,57.5C 419.341,58.4023 420.674,59.7356 421.5,61.5C 421.973,62.9063 422.973,63.573 424.5,63.5C 475.522,109.877 504.522,167.544 511.5,236.5C 511.5,247.5 511.5,258.5 511.5,269.5C 510.208,287.53 507.208,305.197 502.5,322.5C 501.076,324.515 500.41,326.848 500.5,329.5C 493.77,351.954 484.103,372.954 471.5,392.5C 470.094,392.973 469.427,393.973 469.5,395.5C 468.094,395.973 467.427,396.973 467.5,398.5C 466.094,398.973 465.427,399.973 465.5,401.5C 464.974,403.23 463.974,404.564 462.5,405.5C 461.094,405.973 460.427,406.973 460.5,408.5C 459.557,411.109 457.89,413.109 455.5,414.5C 454.094,414.973 453.427,415.973 453.5,417.5C 452.598,419.341 451.264,420.674 449.5,421.5C 448.094,421.973 447.427,422.973 447.5,424.5C 445.265,427.673 442.599,430.34 439.5,432.5C 435.5,435.833 431.833,439.5 428.5,443.5C 427.5,445.167 426.167,446.5 424.5,447.5C 422.251,448.08 420.585,449.413 419.5,451.5C 412.051,459.39 403.385,465.557 393.5,470C 373.953,483.694 352.62,493.861 329.5,500.5C 326.848,500.41 324.515,501.076 322.5,502.5C 305.197,507.208 287.53,510.208 269.5,511.5C 258.5,511.5 247.5,511.5 236.5,511.5C 167.544,504.522 109.877,475.522 63.5,424.5C 63.573,422.973 62.9063,421.973 61.5,421.5C 59.7356,420.674 58.4023,419.341 57.5,417.5C 57.573,415.973 56.9063,414.973 55.5,414.5C 53.1097,413.109 51.4431,411.109 50.5,408.5C 50.573,406.973 49.9063,405.973 48.5,405.5C 47.0256,404.564 46.0256,403.23 45.5,401.5C 45.573,399.973 44.9063,398.973 43.5,398.5C 43.573,396.973 42.9063,395.973 41.5,395.5C 41.573,393.973 40.9063,392.973 39.5,392.5C 26.8968,372.954 17.2301,351.954 10.5,329.5C 10.5905,326.848 9.92381,324.515 8.5,322.5C 3.79225,305.197 0.792254,287.53 -0.5,269.5C -0.5,258.5 -0.5,247.5 -0.5,236.5C 3.30057,196.261 15.4672,158.595 36,123.5C 82.9011,50.283 149.734,8.94966 236.5,-0.5 Z"/></g>
<g><path style="opacity:1" fill="#8c8c8c" d="M 322.5,8.5 C 325.152,8.40953 327.485,9.07619 329.5,10.5C 326.848,10.5905 324.515,9.92381 322.5,8.5 Z"/></g>
<g><path style="opacity:1" fill="#6f6f6f" d="M 392.5,39.5 C 394.027,39.427 395.027,40.0937 395.5,41.5C 393.973,41.573 392.973,40.9063 392.5,39.5 Z"/></g>
<g><path style="opacity:1" fill="#616161" d="M 395.5,41.5 C 397.027,41.427 398.027,42.0937 398.5,43.5C 396.973,43.573 395.973,42.9063 395.5,41.5 Z"/></g>
<g><path style="opacity:1" fill="#6d6d6d" d="M 398.5,43.5 C 400.027,43.427 401.027,44.0937 401.5,45.5C 399.973,45.573 398.973,44.9063 398.5,43.5 Z"/></g>
<g><path style="opacity:1" fill="#6b6b6b" d="M 405.5,48.5 C 407.027,48.427 408.027,49.0937 408.5,50.5C 406.973,50.573 405.973,49.9063 405.5,48.5 Z"/></g>
<g><path style="opacity:1" fill="#696969" d="M 414.5,55.5 C 416.027,55.427 417.027,56.0937 417.5,57.5C 415.973,57.573 414.973,56.9063 414.5,55.5 Z"/></g>
<g><path style="opacity:1" fill="#5b5b5b" d="M 421.5,61.5 C 423.027,61.427 424.027,62.0937 424.5,63.5C 422.973,63.573 421.973,62.9063 421.5,61.5 Z"/></g>
<g><path style="opacity:1" fill="#fdfdfd" d="M 123.5,217.5 C 137.319,215.553 149.319,219.22 159.5,228.5C 159.738,230.404 160.738,231.738 162.5,232.5C 169.239,242.025 171.405,252.692 169,264.5C 161.228,287.146 145.395,296.646 121.5,293C 94.4182,281.428 86.7516,262.095 98.5,235C 102.194,230.309 106.194,225.976 110.5,222C 112.852,221.76 114.852,220.927 116.5,219.5C 119.152,219.59 121.485,218.924 123.5,217.5 Z"/></g>
<g><path style="opacity:1" fill="#fdfdfd" d="M 284.5,229.5 C 284.427,231.027 285.094,232.027 286.5,232.5C 292.008,239.036 294.342,246.703 293.5,255.5C 293.068,275.103 283.401,287.603 264.5,293C 257.477,293.721 250.477,293.554 243.5,292.5C 239.545,290.863 235.879,288.863 232.5,286.5C 232.027,285.094 231.027,284.427 229.5,284.5C 218.347,273.015 214.681,259.348 218.5,243.5C 220.137,239.545 222.137,235.879 224.5,232.5C 225.906,232.027 226.573,231.027 226.5,229.5C 230.28,227.223 233.613,224.389 236.5,221C 254.448,213.959 270.448,216.792 284.5,229.5 Z"/></g>
<g><path style="opacity:1" fill="#fdfdfd" d="M 348.5,232.5 C 350.262,231.738 351.262,230.404 351.5,228.5C 364.296,217.188 378.962,214.355 395.5,220C 419.015,234.56 424.181,254.06 411,278.5C 396.081,294.649 378.581,297.982 358.5,288.5C 344.05,277.331 338.55,262.664 342,244.5C 343.512,240.117 345.679,236.117 348.5,232.5 Z"/></g>
<g><path style="opacity:1" fill="#8d8d8d" d="M 123.5,217.5 C 121.485,218.924 119.152,219.59 116.5,219.5C 118.515,218.076 120.848,217.41 123.5,217.5 Z"/></g>
<g><path style="opacity:1" fill="#676767" d="M 159.5,228.5 C 161.262,229.262 162.262,230.596 162.5,232.5C 160.738,231.738 159.738,230.404 159.5,228.5 Z"/></g>
<g><path style="opacity:1" fill="#6e6e6e" d="M 351.5,228.5 C 351.262,230.404 350.262,231.738 348.5,232.5C 348.738,230.596 349.738,229.262 351.5,228.5 Z"/></g>
<g><path style="opacity:1" fill="#707070" d="M 226.5,229.5 C 226.573,231.027 225.906,232.027 224.5,232.5C 224.427,230.973 225.094,229.973 226.5,229.5 Z"/></g>
<g><path style="opacity:1" fill="#707070" d="M 284.5,229.5 C 285.906,229.973 286.573,230.973 286.5,232.5C 285.094,232.027 284.427,231.027 284.5,229.5 Z"/></g>
<g><path style="opacity:1" fill="#fefefe" d="M -0.5,269.5 C 0.792254,287.53 3.79225,305.197 8.5,322.5C 8.40953,325.152 9.07619,327.485 10.5,329.5C 17.2301,351.954 26.8968,372.954 39.5,392.5C 39.427,394.027 40.0937,395.027 41.5,395.5C 41.427,397.027 42.0937,398.027 43.5,398.5C 43.427,400.027 44.0937,401.027 45.5,401.5C 46.0256,403.23 47.0256,404.564 48.5,405.5C 48.427,407.027 49.0937,408.027 50.5,408.5C 51.4431,411.109 53.1097,413.109 55.5,414.5C 55.427,416.027 56.0937,417.027 57.5,417.5C 58.4023,419.341 59.7356,420.674 61.5,421.5C 61.427,423.027 62.0937,424.027 63.5,424.5C 109.877,475.522 167.544,504.522 236.5,511.5C 157.5,511.5 78.5,511.5 -0.5,511.5C -0.5,430.833 -0.5,350.167 -0.5,269.5 Z"/></g>
<g><path style="opacity:1" fill="#fefefe" d="M 511.5,269.5 C 511.5,350.167 511.5,430.833 511.5,511.5C 430.833,511.5 350.167,511.5 269.5,511.5C 287.53,510.208 305.197,507.208 322.5,502.5C 325.152,502.59 327.485,501.924 329.5,500.5C 352.62,493.861 373.953,483.694 393.5,470C 403.385,465.557 412.051,459.39 419.5,451.5C 421.749,450.92 423.415,449.587 424.5,447.5C 426.167,446.5 427.5,445.167 428.5,443.5C 433.167,440.833 436.833,437.167 439.5,432.5C 442.599,430.34 445.265,427.673 447.5,424.5C 448.906,424.027 449.573,423.027 449.5,421.5C 451.264,420.674 452.598,419.341 453.5,417.5C 454.906,417.027 455.573,416.027 455.5,414.5C 457.89,413.109 459.557,411.109 460.5,408.5C 461.906,408.027 462.573,407.027 462.5,405.5C 463.974,404.564 464.974,403.23 465.5,401.5C 466.906,401.027 467.573,400.027 467.5,398.5C 468.906,398.027 469.573,397.027 469.5,395.5C 470.906,395.027 471.573,394.027 471.5,392.5C 484.103,372.954 493.77,351.954 500.5,329.5C 501.924,327.485 502.59,325.152 502.5,322.5C 507.208,305.197 510.208,287.53 511.5,269.5 Z"/></g>
<g><path style="opacity:1" fill="#707070" d="M 229.5,284.5 C 231.027,284.427 232.027,285.094 232.5,286.5C 230.973,286.573 229.973,285.906 229.5,284.5 Z"/></g>
<g><path style="opacity:1" fill="#8c8c8c" d="M 8.5,322.5 C 9.92381,324.515 10.5905,326.848 10.5,329.5C 9.07619,327.485 8.40953,325.152 8.5,322.5 Z"/></g>
<g><path style="opacity:1" fill="#8c8c8c" d="M 502.5,322.5 C 502.59,325.152 501.924,327.485 500.5,329.5C 500.41,326.848 501.076,324.515 502.5,322.5 Z"/></g>
<g><path style="opacity:1" fill="#6f6f6f" d="M 39.5,392.5 C 40.9063,392.973 41.573,393.973 41.5,395.5C 40.0937,395.027 39.427,394.027 39.5,392.5 Z"/></g>
<g><path style="opacity:1" fill="#6f6f6f" d="M 471.5,392.5 C 471.573,394.027 470.906,395.027 469.5,395.5C 469.427,393.973 470.094,392.973 471.5,392.5 Z"/></g>
<g><path style="opacity:1" fill="#616161" d="M 41.5,395.5 C 42.9063,395.973 43.573,396.973 43.5,398.5C 42.0937,398.027 41.427,397.027 41.5,395.5 Z"/></g>
<g><path style="opacity:1" fill="#616161" d="M 469.5,395.5 C 469.573,397.027 468.906,398.027 467.5,398.5C 467.427,396.973 468.094,395.973 469.5,395.5 Z"/></g>
<g><path style="opacity:1" fill="#6d6d6d" d="M 43.5,398.5 C 44.9063,398.973 45.573,399.973 45.5,401.5C 44.0937,401.027 43.427,400.027 43.5,398.5 Z"/></g>
<g><path style="opacity:1" fill="#6d6d6d" d="M 467.5,398.5 C 467.573,400.027 466.906,401.027 465.5,401.5C 465.427,399.973 466.094,398.973 467.5,398.5 Z"/></g>
<g><path style="opacity:1" fill="#6b6b6b" d="M 48.5,405.5 C 49.9063,405.973 50.573,406.973 50.5,408.5C 49.0937,408.027 48.427,407.027 48.5,405.5 Z"/></g>
<g><path style="opacity:1" fill="#6b6b6b" d="M 462.5,405.5 C 462.573,407.027 461.906,408.027 460.5,408.5C 460.427,406.973 461.094,405.973 462.5,405.5 Z"/></g>
<g><path style="opacity:1" fill="#696969" d="M 55.5,414.5 C 56.9063,414.973 57.573,415.973 57.5,417.5C 56.0937,417.027 55.427,416.027 55.5,414.5 Z"/></g>
<g><path style="opacity:1" fill="#696969" d="M 455.5,414.5 C 455.573,416.027 454.906,417.027 453.5,417.5C 453.427,415.973 454.094,414.973 455.5,414.5 Z"/></g>
<g><path style="opacity:1" fill="#5b5b5b" d="M 61.5,421.5 C 62.9063,421.973 63.573,422.973 63.5,424.5C 62.0937,424.027 61.427,423.027 61.5,421.5 Z"/></g>
<g><path style="opacity:1" fill="#5b5b5b" d="M 449.5,421.5 C 449.573,423.027 448.906,424.027 447.5,424.5C 447.427,422.973 448.094,421.973 449.5,421.5 Z"/></g>
<g><path style="opacity:1" fill="#7d7d7d" d="M 439.5,432.5 C 436.833,437.167 433.167,440.833 428.5,443.5C 431.833,439.5 435.5,435.833 439.5,432.5 Z"/></g>
<g><path style="opacity:1" fill="#818181" d="M 424.5,447.5 C 423.415,449.587 421.749,450.92 419.5,451.5C 420.585,449.413 422.251,448.08 424.5,447.5 Z"/></g>
<g><path style="opacity:1" fill="#989898" d="M 329.5,500.5 C 327.485,501.924 325.152,502.59 322.5,502.5C 324.515,501.076 326.848,500.41 329.5,500.5 Z"/></g>
</svg>
