<svg width="39" height="42" viewBox="0 0 39 42" fill="none" xmlns="http://www.w3.org/2000/svg">
    <path d="M1.26416 1.86363C2.23782 0.714337 3.73045 0.0147653 5.24605 0.00113723H30.8321C31.4935 -0.0124908 32.1548 0.0965334 32.7748 0.319124C34.0011 0.755221 35.0482 1.65921 35.6545 2.79942C36.0724 3.56714 36.2791 4.43933 36.2791 5.30698V23.3414C35.4248 22.8962 34.6073 22.3874 33.7209 22.0104C32.4671 21.4834 31.1077 21.1973 29.7482 21.1745C28.1867 21.1473 26.6206 21.4607 25.1968 22.0922C23.7547 22.7327 22.4596 23.6957 21.4354 24.8859C20.4893 25.9807 19.7728 27.2708 19.3503 28.6518C18.6017 31.0594 18.767 33.7305 19.8142 36.0291C20.1862 36.8422 20.6546 37.6099 21.2195 38.3095C21.711 38.9091 22.207 39.5042 22.6984 40.1084H5.42976C4.86485 40.1175 4.29536 40.0403 3.75342 39.8767C2.59146 39.527 1.56269 38.7638 0.892149 37.7644C0.341023 36.9558 0.0287181 35.9882 0.00116176 35.0115V5.34787C-0.0263946 4.08046 0.43747 2.82214 1.26416 1.86363ZM9.36113 7.07408C8.88808 7.17402 8.52066 7.62375 8.53444 8.10527C8.51607 8.64585 8.97993 9.14554 9.52647 9.16371H26.7446C27.0293 9.15917 27.3049 9.0138 27.4932 8.80484C27.7871 8.47777 27.8376 7.96445 27.6172 7.5874C27.4335 7.25579 27.0569 7.04228 26.6757 7.04683H9.64588C9.54943 7.04683 9.45298 7.05591 9.36113 7.07408ZM9.31979 14.4105C9.09475 14.4696 8.89267 14.6058 8.75489 14.7875C8.46096 15.1555 8.46555 15.7233 8.76407 16.0913C8.97075 16.3548 9.31061 16.5047 9.64588 16.4956H26.6757C26.965 16.4956 27.2498 16.382 27.4519 16.1776C27.7825 15.8551 27.8514 15.3145 27.6264 14.9193C27.4564 14.6058 27.112 14.3878 26.7492 14.3787H9.53106C9.45758 14.3787 9.38409 14.3878 9.31979 14.4105ZM9.42543 21.7015C8.96156 21.7378 8.56659 22.133 8.53903 22.5919C8.53444 22.8008 8.52066 23.0189 8.60792 23.2142C8.75489 23.5776 9.13609 23.8275 9.53106 23.8229H16.1124C16.5533 23.8229 16.9713 23.4913 17.0585 23.0598C17.1733 22.5464 16.8748 21.9877 16.388 21.7923C16.1354 21.6742 15.8506 21.706 15.5797 21.706C13.5267 21.697 11.4738 21.697 9.42543 21.7015ZM9.31979 29.0561C9.03504 29.1333 8.78704 29.3332 8.65385 29.5921C8.48851 29.901 8.4977 30.2962 8.67222 30.6006C8.85134 30.9186 9.20038 31.1321 9.5678 31.1366H13.8941C14.1789 31.1366 14.4636 31.014 14.6565 30.805C14.978 30.4825 15.0423 29.9465 14.8127 29.5558C14.6336 29.2333 14.2662 29.0152 13.8941 29.0197H9.84336C9.66425 29.0197 9.48513 29.0061 9.31979 29.0561Z" fill="#43A2E3"/>
    <path d="M29.2266 22.2891C31.3899 22.2264 33.5668 22.9202 35.2791 24.2227C36.445 25.1 37.3968 26.2459 38.039 27.544C38.7722 29.0121 39.091 30.6727 38.9771 32.302C38.8815 33.7165 38.4488 35.1085 37.7202 36.335C36.9869 37.5793 35.9577 38.6536 34.7417 39.4459C33.6123 40.1844 32.3144 40.6812 30.9709 40.8871C29.1947 41.1647 27.3412 40.9409 25.6926 40.2336C24.4265 39.6965 23.2834 38.8819 22.368 37.8703C21.2659 36.6573 20.4917 35.1578 20.1547 33.5643C19.8314 32.0335 19.8951 30.4221 20.3596 28.9271C20.7285 27.723 21.3525 26.595 22.1722 25.6282C23.0785 24.5674 24.2216 23.7035 25.5013 23.1261C26.6672 22.6113 27.9469 22.3249 29.2266 22.2891Z" fill="#43A2E3"/>
    <path d="M27.4305 27.6525C26.9356 27.1662 26.2767 27.1494 25.7775 27.6399C25.2784 28.1305 25.2954 28.778 25.7903 29.2643L28.0717 31.5063L25.8254 33.7138C25.3381 34.1926 25.3313 34.84 25.8382 35.3382C26.3452 35.8364 27.0039 35.8296 27.4912 35.3508L29.7375 33.1433L32.0188 35.3853C32.5137 35.8716 33.1605 35.8765 33.6597 35.386C34.1589 34.8954 34.1539 34.2598 33.659 33.7735L31.3776 31.5315L33.6239 29.324C34.1111 28.8451 34.118 28.1978 33.5992 27.7113C33.0922 27.2131 32.4335 27.2198 31.9581 27.687L29.7118 29.8945L27.4305 27.6525Z" fill="white"/>
</svg>
