<svg width="37" height="30" viewBox="0 0 37 30" fill="none" xmlns="http://www.w3.org/2000/svg">
<path d="M20.4635 22.029L25.3912 13.9793C26.0397 12.92 27.5742 12.92 28.2226 13.9793L33.1504 22.029L36.7191 27.4102C37.4537 28.5178 36.662 30 35.3358 30H18.278C16.9518 30 16.1602 28.5179 16.8948 27.4102L20.4635 22.029Z" fill="white"/>
<path d="M31.7911 5C31.7911 7.76142 29.5596 10 26.8069 10C24.0542 10 21.8228 7.76142 21.8228 5C21.8228 2.23858 24.0542 0 26.8069 0C29.5596 0 31.7911 2.23858 31.7911 5Z" fill="white"/>
<path d="M3.84962 22.029L8.77735 13.9793C9.42582 12.92 10.9603 12.92 11.6088 13.9793L16.5365 22.029L20.1052 27.4102C20.8398 28.5178 20.0482 30 18.722 30H1.66417C0.337951 30 -0.453662 28.5179 0.280939 27.4102L3.84962 22.029Z" fill="white"/>
<path d="M15.1772 5C15.1772 7.76142 12.9458 10 10.1931 10C7.44042 10 5.20894 7.76142 5.20894 5C5.20894 2.23858 7.44042 0 10.1931 0C12.9458 0 15.1772 2.23858 15.1772 5Z" fill="white"/>
</svg>
